solid 40x24.2x31.8 Block
   facet normal 1.000000e+000 0.000000e+000 -4.336809e-017
      outer loop
         vertex 2.420000e+001 3.181000e+001 0.000000e+000
         vertex 2.420000e+001 3.181000e+001 4.000000e+001
         vertex 2.420000e+001 0.000000e+000 0.000000e+000
      endloop
   endfacet
   facet normal 1.000000e+000 0.000000e+000 -4.336809e-017
      outer loop
         vertex 2.420000e+001 0.000000e+000 0.000000e+000
         vertex 2.420000e+001 3.181000e+001 4.000000e+001
         vertex 2.420000e+001 0.000000e+000 4.000000e+001
      endloop
   endfacet
   facet normal 0.000000e+000 0.000000e+000 -1.000000e+000
      outer loop
         vertex 0.000000e+000 3.181000e+001 0.000000e+000
         vertex 2.420000e+001 3.181000e+001 0.000000e+000
         vertex 0.000000e+000 0.000000e+000 0.000000e+000
      endloop
   endfacet
   facet normal 0.000000e+000 0.000000e+000 -1.000000e+000
      outer loop
         vertex 0.000000e+000 0.000000e+000 0.000000e+000
         vertex 2.420000e+001 3.181000e+001 0.000000e+000
         vertex 2.420000e+001 0.000000e+000 0.000000e+000
      endloop
   endfacet
   facet normal -1.000000e+000 0.000000e+000 1.301043e-016
      outer loop
         vertex 0.000000e+000 3.181000e+001 4.000000e+001
         vertex 0.000000e+000 3.181000e+001 0.000000e+000
         vertex 0.000000e+000 0.000000e+000 4.000000e+001
      endloop
   endfacet
   facet normal -1.000000e+000 0.000000e+000 1.301043e-016
      outer loop
         vertex 0.000000e+000 0.000000e+000 4.000000e+001
         vertex 0.000000e+000 3.181000e+001 0.000000e+000
         vertex 0.000000e+000 0.000000e+000 0.000000e+000
      endloop
   endfacet
   facet normal 0.000000e+000 0.000000e+000 1.000000e+000
      outer loop
         vertex 2.420000e+001 3.181000e+001 4.000000e+001
         vertex 0.000000e+000 3.181000e+001 4.000000e+001
         vertex 2.420000e+001 0.000000e+000 4.000000e+001
      endloop
   endfacet
   facet normal 0.000000e+000 0.000000e+000 1.000000e+000
      outer loop
         vertex 2.420000e+001 0.000000e+000 4.000000e+001
         vertex 0.000000e+000 3.181000e+001 4.000000e+001
         vertex 0.000000e+000 0.000000e+000 4.000000e+001
      endloop
   endfacet
   facet normal 0.000000e+000 1.000000e+000 0.000000e+000
      outer loop
         vertex 0.000000e+000 3.181000e+001 0.000000e+000
         vertex 0.000000e+000 3.181000e+001 4.000000e+001
         vertex 2.420000e+001 3.181000e+001 0.000000e+000
      endloop
   endfacet
   facet normal 0.000000e+000 1.000000e+000 0.000000e+000
      outer loop
         vertex 2.420000e+001 3.181000e+001 0.000000e+000
         vertex 0.000000e+000 3.181000e+001 4.000000e+001
         vertex 2.420000e+001 3.181000e+001 4.000000e+001
      endloop
   endfacet
   facet normal 0.000000e+000 -1.000000e+000 0.000000e+000
      outer loop
         vertex 0.000000e+000 0.000000e+000 4.000000e+001
         vertex 0.000000e+000 0.000000e+000 0.000000e+000
         vertex 2.420000e+001 0.000000e+000 4.000000e+001
      endloop
   endfacet
   facet normal 0.000000e+000 -1.000000e+000 0.000000e+000
      outer loop
         vertex 2.420000e+001 0.000000e+000 4.000000e+001
         vertex 0.000000e+000 0.000000e+000 0.000000e+000
         vertex 2.420000e+001 0.000000e+000 0.000000e+000
      endloop
   endfacet
endsolid