solid Die_LTCC_PCB-V5_GTL.stl
  facet normal -0.707107 0.707107 0
    outer loop
      vertex 107.25 45.9825 1.2
      vertex 107.017 45.7501 1.5
      vertex 107.25 45.9825 1.5
    endloop
  endfacet
  facet normal -0.965918 0.258847 0
    outer loop
      vertex 107.335 46.3 1.2
      vertex 107.25 45.9825 1.2
      vertex 107.25 45.9825 1.5
    endloop
  endfacet
  facet normal -0.965918 0.258847 0
    outer loop
      vertex 107.335 46.3 1.2
      vertex 107.25 45.9825 1.5
      vertex 107.335 46.3 1.5
    endloop
  endfacet
  facet normal -0.707107 0.707107 0
    outer loop
      vertex 107.25 45.9825 1.2
      vertex 107.017 45.7501 1.2
      vertex 107.017 45.7501 1.5
    endloop
  endfacet
  facet normal -0.258815 0.965927 0
    outer loop
      vertex 107.017 45.7501 1.2
      vertex 106.7 45.665 1.2
      vertex 106.7 45.665 1.5
    endloop
  endfacet
  facet normal -0.258815 0.965927 0
    outer loop
      vertex 107.017 45.7501 1.2
      vertex 106.7 45.665 1.5
      vertex 107.017 45.7501 1.5
    endloop
  endfacet
  facet normal 0.258798 0.965931 0
    outer loop
      vertex 106.7 45.665 1.2
      vertex 106.383 45.7501 1.2
      vertex 106.383 45.7501 1.5
    endloop
  endfacet
  facet normal 0.707124 0.707089 0
    outer loop
      vertex 106.383 45.7501 1.2
      vertex 106.15 45.9825 1.2
      vertex 106.15 45.9825 1.5
    endloop
  endfacet
  facet normal 0.258798 0.965931 0
    outer loop
      vertex 106.7 45.665 1.2
      vertex 106.383 45.7501 1.5
      vertex 106.7 45.665 1.5
    endloop
  endfacet
  facet normal 0.707124 0.707089 0
    outer loop
      vertex 106.383 45.7501 1.2
      vertex 106.15 45.9825 1.5
      vertex 106.383 45.7501 1.5
    endloop
  endfacet
  facet normal 0.965922 0.258834 0
    outer loop
      vertex 106.15 45.9825 1.2
      vertex 106.065 46.3 1.2
      vertex 106.065 46.3 1.5
    endloop
  endfacet
  facet normal 0.965922 0.258834 0
    outer loop
      vertex 106.15 45.9825 1.2
      vertex 106.065 46.3 1.5
      vertex 106.15 45.9825 1.5
    endloop
  endfacet
  facet normal 0.965924 -0.258825 0
    outer loop
      vertex 106.065 46.3 1.2
      vertex 106.15 46.6175 1.2
      vertex 106.15 46.6175 1.5
    endloop
  endfacet
  facet normal 0.965924 -0.258825 0
    outer loop
      vertex 106.065 46.3 1.2
      vertex 106.15 46.6175 1.5
      vertex 106.065 46.3 1.5
    endloop
  endfacet
  facet normal 0.707072 -0.707142 0
    outer loop
      vertex 106.15 46.6175 1.2
      vertex 106.383 46.8499 1.2
      vertex 106.383 46.8499 1.5
    endloop
  endfacet
  facet normal 0.707072 -0.707142 0
    outer loop
      vertex 106.15 46.6175 1.2
      vertex 106.383 46.8499 1.5
      vertex 106.15 46.6175 1.5
    endloop
  endfacet
  facet normal -0.258815 -0.965927 0
    outer loop
      vertex 106.7 46.935 1.2
      vertex 107.017 46.8499 1.2
      vertex 107.017 46.8499 1.5
    endloop
  endfacet
  facet normal -0.258815 -0.965927 0
    outer loop
      vertex 106.7 46.935 1.2
      vertex 107.017 46.8499 1.5
      vertex 106.7 46.935 1.5
    endloop
  endfacet
  facet normal 0.258815 -0.965927 0
    outer loop
      vertex 106.383 46.8499 1.2
      vertex 106.7 46.935 1.2
      vertex 106.7 46.935 1.5
    endloop
  endfacet
  facet normal 0.258815 -0.965927 0
    outer loop
      vertex 106.383 46.8499 1.2
      vertex 106.7 46.935 1.5
      vertex 106.383 46.8499 1.5
    endloop
  endfacet
  facet normal -0.707113 -0.707101 0
    outer loop
      vertex 107.017 46.8499 1.2
      vertex 107.25 46.6175 1.2
      vertex 107.25 46.6175 1.5
    endloop
  endfacet
  facet normal -0.707113 -0.707101 0
    outer loop
      vertex 107.017 46.8499 1.2
      vertex 107.25 46.6175 1.5
      vertex 107.017 46.8499 1.5
    endloop
  endfacet
  facet normal -0.965918 -0.25885 0
    outer loop
      vertex 107.25 46.6175 1.2
      vertex 107.335 46.3 1.2
      vertex 107.335 46.3 1.5
    endloop
  endfacet
  facet normal -0.965918 -0.25885 0
    outer loop
      vertex 107.25 46.6175 1.2
      vertex 107.335 46.3 1.5
      vertex 107.25 46.6175 1.5
    endloop
  endfacet
  facet normal -0.965918 0.258847 0
    outer loop
      vertex 107.335 57.55 1.2
      vertex 107.25 57.2325 1.2
      vertex 107.25 57.2325 1.5
    endloop
  endfacet
  facet normal -0.965918 0.258847 0
    outer loop
      vertex 107.335 57.55 1.2
      vertex 107.25 57.2325 1.5
      vertex 107.335 57.55 1.5
    endloop
  endfacet
  facet normal -0.258815 0.965927 0
    outer loop
      vertex 107.017 57.0001 1.2
      vertex 106.7 56.915 1.2
      vertex 106.7 56.915 1.5
    endloop
  endfacet
  facet normal -0.258815 0.965927 0
    outer loop
      vertex 107.017 57.0001 1.2
      vertex 106.7 56.915 1.5
      vertex 107.017 57.0001 1.5
    endloop
  endfacet
  facet normal -0.707107 0.707107 0
    outer loop
      vertex 107.25 57.2325 1.2
      vertex 107.017 57.0001 1.2
      vertex 107.017 57.0001 1.5
    endloop
  endfacet
  facet normal -0.707107 0.707107 0
    outer loop
      vertex 107.25 57.2325 1.2
      vertex 107.017 57.0001 1.5
      vertex 107.25 57.2325 1.5
    endloop
  endfacet
  facet normal 0.258798 0.965931 0
    outer loop
      vertex 106.7 56.915 1.2
      vertex 106.383 57.0001 1.2
      vertex 106.383 57.0001 1.5
    endloop
  endfacet
  facet normal 0.258798 0.965931 0
    outer loop
      vertex 106.7 56.915 1.2
      vertex 106.383 57.0001 1.5
      vertex 106.7 56.915 1.5
    endloop
  endfacet
  facet normal 0.707124 0.707089 0
    outer loop
      vertex 106.383 57.0001 1.2
      vertex 106.15 57.2325 1.2
      vertex 106.15 57.2325 1.5
    endloop
  endfacet
  facet normal 0.707124 0.707089 0
    outer loop
      vertex 106.383 57.0001 1.2
      vertex 106.15 57.2325 1.5
      vertex 106.383 57.0001 1.5
    endloop
  endfacet
  facet normal 0.965922 0.258834 0
    outer loop
      vertex 106.15 57.2325 1.2
      vertex 106.065 57.55 1.2
      vertex 106.065 57.55 1.5
    endloop
  endfacet
  facet normal 0.965922 0.258834 0
    outer loop
      vertex 106.15 57.2325 1.2
      vertex 106.065 57.55 1.5
      vertex 106.15 57.2325 1.5
    endloop
  endfacet
  facet normal 0.965924 -0.258825 0
    outer loop
      vertex 106.065 57.55 1.2
      vertex 106.15 57.8675 1.2
      vertex 106.15 57.8675 1.5
    endloop
  endfacet
  facet normal 0.965924 -0.258825 0
    outer loop
      vertex 106.065 57.55 1.2
      vertex 106.15 57.8675 1.5
      vertex 106.065 57.55 1.5
    endloop
  endfacet
  facet normal 0.707072 -0.707142 0
    outer loop
      vertex 106.15 57.8675 1.2
      vertex 106.383 58.0999 1.2
      vertex 106.383 58.0999 1.5
    endloop
  endfacet
  facet normal 0.707072 -0.707142 0
    outer loop
      vertex 106.15 57.8675 1.2
      vertex 106.383 58.0999 1.5
      vertex 106.15 57.8675 1.5
    endloop
  endfacet
  facet normal 0.258815 -0.965927 0
    outer loop
      vertex 106.383 58.0999 1.2
      vertex 106.7 58.185 1.2
      vertex 106.7 58.185 1.5
    endloop
  endfacet
  facet normal 0.258815 -0.965927 0
    outer loop
      vertex 106.383 58.0999 1.2
      vertex 106.7 58.185 1.5
      vertex 106.383 58.0999 1.5
    endloop
  endfacet
  facet normal -0.258815 -0.965927 0
    outer loop
      vertex 106.7 58.185 1.2
      vertex 107.017 58.0999 1.2
      vertex 107.017 58.0999 1.5
    endloop
  endfacet
  facet normal -0.258815 -0.965927 0
    outer loop
      vertex 106.7 58.185 1.2
      vertex 107.017 58.0999 1.5
      vertex 106.7 58.185 1.5
    endloop
  endfacet
  facet normal -0.707113 -0.707101 0
    outer loop
      vertex 107.017 58.0999 1.2
      vertex 107.25 57.8675 1.2
      vertex 107.25 57.8675 1.5
    endloop
  endfacet
  facet normal -0.707113 -0.707101 0
    outer loop
      vertex 107.017 58.0999 1.2
      vertex 107.25 57.8675 1.5
      vertex 107.017 58.0999 1.5
    endloop
  endfacet
  facet normal -0.965918 -0.25885 0
    outer loop
      vertex 107.25 57.8675 1.2
      vertex 107.335 57.55 1.2
      vertex 107.335 57.55 1.5
    endloop
  endfacet
  facet normal -0.965918 -0.25885 0
    outer loop
      vertex 107.25 57.8675 1.2
      vertex 107.335 57.55 1.5
      vertex 107.25 57.8675 1.5
    endloop
  endfacet
  facet normal -0.965924 0.258825 0
    outer loop
      vertex 114.835 46.3 1.2
      vertex 114.75 45.9825 1.2
      vertex 114.75 45.9825 1.5
    endloop
  endfacet
  facet normal -0.965924 0.258825 0
    outer loop
      vertex 114.835 46.3 1.2
      vertex 114.75 45.9825 1.5
      vertex 114.835 46.3 1.5
    endloop
  endfacet
  facet normal -0.707107 0.707107 0
    outer loop
      vertex 114.75 45.9825 1.2
      vertex 114.517 45.7501 1.2
      vertex 114.517 45.7501 1.5
    endloop
  endfacet
  facet normal -0.707107 0.707107 0
    outer loop
      vertex 114.75 45.9825 1.2
      vertex 114.517 45.7501 1.5
      vertex 114.75 45.9825 1.5
    endloop
  endfacet
  facet normal -0.258815 0.965927 0
    outer loop
      vertex 114.517 45.7501 1.2
      vertex 114.2 45.665 1.2
      vertex 114.2 45.665 1.5
    endloop
  endfacet
  facet normal -0.258815 0.965927 0
    outer loop
      vertex 114.517 45.7501 1.2
      vertex 114.2 45.665 1.5
      vertex 114.517 45.7501 1.5
    endloop
  endfacet
  facet normal 0.965916 0.258856 0
    outer loop
      vertex 113.65 45.9825 1.2
      vertex 113.565 46.3 1.2
      vertex 113.565 46.3 1.5
    endloop
  endfacet
  facet normal 0.965916 0.258856 0
    outer loop
      vertex 113.65 45.9825 1.2
      vertex 113.565 46.3 1.5
      vertex 113.65 45.9825 1.5
    endloop
  endfacet
  facet normal 0.965918 -0.258847 0
    outer loop
      vertex 113.565 46.3 1.2
      vertex 113.65 46.6175 1.2
      vertex 113.65 46.6175 1.5
    endloop
  endfacet
  facet normal 0.965918 -0.258847 0
    outer loop
      vertex 113.565 46.3 1.2
      vertex 113.65 46.6175 1.5
      vertex 113.565 46.3 1.5
    endloop
  endfacet
  facet normal 0.258798 0.965931 0
    outer loop
      vertex 114.2 45.665 1.2
      vertex 113.883 45.7501 1.2
      vertex 113.883 45.7501 1.5
    endloop
  endfacet
  facet normal 0.258798 0.965931 0
    outer loop
      vertex 114.2 45.665 1.2
      vertex 113.883 45.7501 1.5
      vertex 114.2 45.665 1.5
    endloop
  endfacet
  facet normal 0.707124 0.707089 0
    outer loop
      vertex 113.883 45.7501 1.2
      vertex 113.65 45.9825 1.2
      vertex 113.65 45.9825 1.5
    endloop
  endfacet
  facet normal 0.707124 0.707089 0
    outer loop
      vertex 113.883 45.7501 1.2
      vertex 113.65 45.9825 1.5
      vertex 113.883 45.7501 1.5
    endloop
  endfacet
  facet normal 0.707072 -0.707142 0
    outer loop
      vertex 113.65 46.6175 1.2
      vertex 113.883 46.8499 1.2
      vertex 113.883 46.8499 1.5
    endloop
  endfacet
  facet normal 0.707072 -0.707142 0
    outer loop
      vertex 113.65 46.6175 1.2
      vertex 113.883 46.8499 1.5
      vertex 113.65 46.6175 1.5
    endloop
  endfacet
  facet normal 0.258815 -0.965927 0
    outer loop
      vertex 113.883 46.8499 1.2
      vertex 114.2 46.935 1.2
      vertex 114.2 46.935 1.5
    endloop
  endfacet
  facet normal 0.258815 -0.965927 0
    outer loop
      vertex 113.883 46.8499 1.2
      vertex 114.2 46.935 1.5
      vertex 113.883 46.8499 1.5
    endloop
  endfacet
  facet normal -0.258815 -0.965927 0
    outer loop
      vertex 114.2 46.935 1.2
      vertex 114.517 46.8499 1.2
      vertex 114.517 46.8499 1.5
    endloop
  endfacet
  facet normal -0.258815 -0.965927 0
    outer loop
      vertex 114.2 46.935 1.2
      vertex 114.517 46.8499 1.5
      vertex 114.2 46.935 1.5
    endloop
  endfacet
  facet normal -0.707113 -0.707101 0
    outer loop
      vertex 114.517 46.8499 1.2
      vertex 114.75 46.6175 1.2
      vertex 114.75 46.6175 1.5
    endloop
  endfacet
  facet normal -0.707113 -0.707101 0
    outer loop
      vertex 114.517 46.8499 1.2
      vertex 114.75 46.6175 1.5
      vertex 114.517 46.8499 1.5
    endloop
  endfacet
  facet normal -0.965923 -0.258828 0
    outer loop
      vertex 114.75 46.6175 1.2
      vertex 114.835 46.3 1.2
      vertex 114.835 46.3 1.5
    endloop
  endfacet
  facet normal -0.965923 -0.258828 0
    outer loop
      vertex 114.75 46.6175 1.2
      vertex 114.835 46.3 1.5
      vertex 114.75 46.6175 1.5
    endloop
  endfacet
  facet normal -0.965924 0.258825 0
    outer loop
      vertex 114.835 57.55 1.2
      vertex 114.75 57.2325 1.2
      vertex 114.75 57.2325 1.5
    endloop
  endfacet
  facet normal -0.965924 0.258825 0
    outer loop
      vertex 114.835 57.55 1.2
      vertex 114.75 57.2325 1.5
      vertex 114.835 57.55 1.5
    endloop
  endfacet
  facet normal -0.707107 0.707107 0
    outer loop
      vertex 114.75 57.2325 1.2
      vertex 114.517 57.0001 1.2
      vertex 114.517 57.0001 1.5
    endloop
  endfacet
  facet normal -0.707107 0.707107 0
    outer loop
      vertex 114.75 57.2325 1.2
      vertex 114.517 57.0001 1.5
      vertex 114.75 57.2325 1.5
    endloop
  endfacet
  facet normal -0.258815 0.965927 0
    outer loop
      vertex 114.517 57.0001 1.2
      vertex 114.2 56.915 1.2
      vertex 114.2 56.915 1.5
    endloop
  endfacet
  facet normal -0.258815 0.965927 0
    outer loop
      vertex 114.517 57.0001 1.2
      vertex 114.2 56.915 1.5
      vertex 114.517 57.0001 1.5
    endloop
  endfacet
  facet normal 0.258798 0.965931 0
    outer loop
      vertex 114.2 56.915 1.2
      vertex 113.883 57.0001 1.2
      vertex 113.883 57.0001 1.5
    endloop
  endfacet
  facet normal 0.258798 0.965931 0
    outer loop
      vertex 114.2 56.915 1.2
      vertex 113.883 57.0001 1.5
      vertex 114.2 56.915 1.5
    endloop
  endfacet
  facet normal 0.707124 0.707089 0
    outer loop
      vertex 113.883 57.0001 1.2
      vertex 113.65 57.2325 1.2
      vertex 113.65 57.2325 1.5
    endloop
  endfacet
  facet normal 0.707124 0.707089 0
    outer loop
      vertex 113.883 57.0001 1.2
      vertex 113.65 57.2325 1.5
      vertex 113.883 57.0001 1.5
    endloop
  endfacet
  facet normal 0.965916 0.258856 0
    outer loop
      vertex 113.65 57.2325 1.2
      vertex 113.565 57.55 1.2
      vertex 113.565 57.55 1.5
    endloop
  endfacet
  facet normal 0.965916 0.258856 0
    outer loop
      vertex 113.65 57.2325 1.2
      vertex 113.565 57.55 1.5
      vertex 113.65 57.2325 1.5
    endloop
  endfacet
  facet normal 0.965918 -0.258847 0
    outer loop
      vertex 113.565 57.55 1.2
      vertex 113.65 57.8675 1.2
      vertex 113.65 57.8675 1.5
    endloop
  endfacet
  facet normal 0.965918 -0.258847 0
    outer loop
      vertex 113.565 57.55 1.2
      vertex 113.65 57.8675 1.5
      vertex 113.565 57.55 1.5
    endloop
  endfacet
  facet normal 0.707072 -0.707142 0
    outer loop
      vertex 113.65 57.8675 1.2
      vertex 113.883 58.0999 1.2
      vertex 113.883 58.0999 1.5
    endloop
  endfacet
  facet normal 0.707072 -0.707142 0
    outer loop
      vertex 113.65 57.8675 1.2
      vertex 113.883 58.0999 1.5
      vertex 113.65 57.8675 1.5
    endloop
  endfacet
  facet normal 0.258815 -0.965927 0
    outer loop
      vertex 113.883 58.0999 1.2
      vertex 114.2 58.185 1.2
      vertex 114.2 58.185 1.5
    endloop
  endfacet
  facet normal 0.258815 -0.965927 0
    outer loop
      vertex 113.883 58.0999 1.2
      vertex 114.2 58.185 1.5
      vertex 113.883 58.0999 1.5
    endloop
  endfacet
  facet normal -0.258815 -0.965927 0
    outer loop
      vertex 114.2 58.185 1.2
      vertex 114.517 58.0999 1.2
      vertex 114.517 58.0999 1.5
    endloop
  endfacet
  facet normal -0.258815 -0.965927 0
    outer loop
      vertex 114.2 58.185 1.2
      vertex 114.517 58.0999 1.5
      vertex 114.2 58.185 1.5
    endloop
  endfacet
  facet normal -0.707113 -0.707101 0
    outer loop
      vertex 114.517 58.0999 1.2
      vertex 114.75 57.8675 1.2
      vertex 114.75 57.8675 1.5
    endloop
  endfacet
  facet normal -0.707113 -0.707101 0
    outer loop
      vertex 114.517 58.0999 1.2
      vertex 114.75 57.8675 1.5
      vertex 114.517 58.0999 1.5
    endloop
  endfacet
  facet normal -0.965923 -0.258828 0
    outer loop
      vertex 114.75 57.8675 1.2
      vertex 114.835 57.55 1.2
      vertex 114.835 57.55 1.5
    endloop
  endfacet
  facet normal -0.965923 -0.258828 0
    outer loop
      vertex 114.75 57.8675 1.2
      vertex 114.835 57.55 1.5
      vertex 114.75 57.8675 1.5
    endloop
  endfacet
  facet normal -0.965924 0.258825 0
    outer loop
      vertex 122.335 46.3 1.2
      vertex 122.25 45.9825 1.2
      vertex 122.25 45.9825 1.5
    endloop
  endfacet
  facet normal -0.965924 0.258825 0
    outer loop
      vertex 122.335 46.3 1.2
      vertex 122.25 45.9825 1.5
      vertex 122.335 46.3 1.5
    endloop
  endfacet
  facet normal -0.707107 0.707107 0
    outer loop
      vertex 122.25 45.9825 1.2
      vertex 122.017 45.7501 1.2
      vertex 122.017 45.7501 1.5
    endloop
  endfacet
  facet normal -0.707107 0.707107 0
    outer loop
      vertex 122.25 45.9825 1.2
      vertex 122.017 45.7501 1.5
      vertex 122.25 45.9825 1.5
    endloop
  endfacet
  facet normal -0.258815 0.965927 0
    outer loop
      vertex 122.017 45.7501 1.2
      vertex 121.7 45.665 1.2
      vertex 121.7 45.665 1.5
    endloop
  endfacet
  facet normal -0.258815 0.965927 0
    outer loop
      vertex 122.017 45.7501 1.2
      vertex 121.7 45.665 1.5
      vertex 122.017 45.7501 1.5
    endloop
  endfacet
  facet normal 0.258798 0.965931 0
    outer loop
      vertex 121.7 45.665 1.2
      vertex 121.383 45.7501 1.2
      vertex 121.383 45.7501 1.5
    endloop
  endfacet
  facet normal 0.258798 0.965931 0
    outer loop
      vertex 121.7 45.665 1.2
      vertex 121.383 45.7501 1.5
      vertex 121.7 45.665 1.5
    endloop
  endfacet
  facet normal 0.707124 0.707089 0
    outer loop
      vertex 121.383 45.7501 1.2
      vertex 121.15 45.9825 1.2
      vertex 121.15 45.9825 1.5
    endloop
  endfacet
  facet normal 0.707124 0.707089 0
    outer loop
      vertex 121.383 45.7501 1.2
      vertex 121.15 45.9825 1.5
      vertex 121.383 45.7501 1.5
    endloop
  endfacet
  facet normal 0.965916 0.258856 0
    outer loop
      vertex 121.15 45.9825 1.2
      vertex 121.065 46.3 1.2
      vertex 121.065 46.3 1.5
    endloop
  endfacet
  facet normal 0.965916 0.258856 0
    outer loop
      vertex 121.15 45.9825 1.2
      vertex 121.065 46.3 1.5
      vertex 121.15 45.9825 1.5
    endloop
  endfacet
  facet normal 0.965918 -0.258847 0
    outer loop
      vertex 121.065 46.3 1.2
      vertex 121.15 46.6175 1.2
      vertex 121.15 46.6175 1.5
    endloop
  endfacet
  facet normal 0.965918 -0.258847 0
    outer loop
      vertex 121.065 46.3 1.2
      vertex 121.15 46.6175 1.5
      vertex 121.065 46.3 1.5
    endloop
  endfacet
  facet normal 0.707072 -0.707142 0
    outer loop
      vertex 121.15 46.6175 1.2
      vertex 121.383 46.8499 1.2
      vertex 121.383 46.8499 1.5
    endloop
  endfacet
  facet normal 0.707072 -0.707142 0
    outer loop
      vertex 121.15 46.6175 1.2
      vertex 121.383 46.8499 1.5
      vertex 121.15 46.6175 1.5
    endloop
  endfacet
  facet normal 0.258815 -0.965927 0
    outer loop
      vertex 121.383 46.8499 1.2
      vertex 121.7 46.935 1.2
      vertex 121.7 46.935 1.5
    endloop
  endfacet
  facet normal 0.258815 -0.965927 0
    outer loop
      vertex 121.383 46.8499 1.2
      vertex 121.7 46.935 1.5
      vertex 121.383 46.8499 1.5
    endloop
  endfacet
  facet normal -0.258815 -0.965927 0
    outer loop
      vertex 121.7 46.935 1.2
      vertex 122.017 46.8499 1.2
      vertex 122.017 46.8499 1.5
    endloop
  endfacet
  facet normal -0.258815 -0.965927 0
    outer loop
      vertex 121.7 46.935 1.2
      vertex 122.017 46.8499 1.5
      vertex 121.7 46.935 1.5
    endloop
  endfacet
  facet normal -0.707113 -0.707101 0
    outer loop
      vertex 122.017 46.8499 1.2
      vertex 122.25 46.6175 1.2
      vertex 122.25 46.6175 1.5
    endloop
  endfacet
  facet normal -0.707113 -0.707101 0
    outer loop
      vertex 122.017 46.8499 1.2
      vertex 122.25 46.6175 1.5
      vertex 122.017 46.8499 1.5
    endloop
  endfacet
  facet normal 0.258798 0.965931 0
    outer loop
      vertex 121.7 56.915 1.2
      vertex 121.383 57.0001 1.2
      vertex 121.383 57.0001 1.5
    endloop
  endfacet
  facet normal 0.258798 0.965931 0
    outer loop
      vertex 121.7 56.915 1.2
      vertex 121.383 57.0001 1.5
      vertex 121.7 56.915 1.5
    endloop
  endfacet
  facet normal -0.965923 -0.258828 0
    outer loop
      vertex 122.25 46.6175 1.2
      vertex 122.335 46.3 1.2
      vertex 122.335 46.3 1.5
    endloop
  endfacet
  facet normal -0.965923 -0.258828 0
    outer loop
      vertex 122.25 46.6175 1.2
      vertex 122.335 46.3 1.5
      vertex 122.25 46.6175 1.5
    endloop
  endfacet
  facet normal -0.965924 0.258825 0
    outer loop
      vertex 122.335 57.55 1.2
      vertex 122.25 57.2325 1.2
      vertex 122.25 57.2325 1.5
    endloop
  endfacet
  facet normal -0.965924 0.258825 0
    outer loop
      vertex 122.335 57.55 1.2
      vertex 122.25 57.2325 1.5
      vertex 122.335 57.55 1.5
    endloop
  endfacet
  facet normal -0.707107 0.707107 0
    outer loop
      vertex 122.25 57.2325 1.2
      vertex 122.017 57.0001 1.2
      vertex 122.017 57.0001 1.5
    endloop
  endfacet
  facet normal -0.707107 0.707107 0
    outer loop
      vertex 122.25 57.2325 1.2
      vertex 122.017 57.0001 1.5
      vertex 122.25 57.2325 1.5
    endloop
  endfacet
  facet normal -0.258815 0.965927 0
    outer loop
      vertex 122.017 57.0001 1.2
      vertex 121.7 56.915 1.2
      vertex 121.7 56.915 1.5
    endloop
  endfacet
  facet normal -0.258815 0.965927 0
    outer loop
      vertex 122.017 57.0001 1.2
      vertex 121.7 56.915 1.5
      vertex 122.017 57.0001 1.5
    endloop
  endfacet
  facet normal 0.707124 0.707089 0
    outer loop
      vertex 121.383 57.0001 1.2
      vertex 121.15 57.2325 1.2
      vertex 121.15 57.2325 1.5
    endloop
  endfacet
  facet normal 0.707124 0.707089 0
    outer loop
      vertex 121.383 57.0001 1.2
      vertex 121.15 57.2325 1.5
      vertex 121.383 57.0001 1.5
    endloop
  endfacet
  facet normal 0.965916 0.258856 0
    outer loop
      vertex 121.15 57.2325 1.2
      vertex 121.065 57.55 1.2
      vertex 121.065 57.55 1.5
    endloop
  endfacet
  facet normal 0.965916 0.258856 0
    outer loop
      vertex 121.15 57.2325 1.2
      vertex 121.065 57.55 1.5
      vertex 121.15 57.2325 1.5
    endloop
  endfacet
  facet normal 0.965918 -0.258847 0
    outer loop
      vertex 121.065 57.55 1.2
      vertex 121.15 57.8675 1.2
      vertex 121.15 57.8675 1.5
    endloop
  endfacet
  facet normal 0.965918 -0.258847 0
    outer loop
      vertex 121.065 57.55 1.2
      vertex 121.15 57.8675 1.5
      vertex 121.065 57.55 1.5
    endloop
  endfacet
  facet normal 0.707072 -0.707142 0
    outer loop
      vertex 121.15 57.8675 1.2
      vertex 121.383 58.0999 1.2
      vertex 121.383 58.0999 1.5
    endloop
  endfacet
  facet normal 0.707072 -0.707142 0
    outer loop
      vertex 121.15 57.8675 1.2
      vertex 121.383 58.0999 1.5
      vertex 121.15 57.8675 1.5
    endloop
  endfacet
  facet normal 0.258815 -0.965927 0
    outer loop
      vertex 121.383 58.0999 1.2
      vertex 121.7 58.185 1.2
      vertex 121.7 58.185 1.5
    endloop
  endfacet
  facet normal 0.258815 -0.965927 0
    outer loop
      vertex 121.383 58.0999 1.2
      vertex 121.7 58.185 1.5
      vertex 121.383 58.0999 1.5
    endloop
  endfacet
  facet normal -0.258815 -0.965927 0
    outer loop
      vertex 121.7 58.185 1.2
      vertex 122.017 58.0999 1.2
      vertex 122.017 58.0999 1.5
    endloop
  endfacet
  facet normal -0.258815 -0.965927 0
    outer loop
      vertex 121.7 58.185 1.2
      vertex 122.017 58.0999 1.5
      vertex 121.7 58.185 1.5
    endloop
  endfacet
  facet normal -0.707113 -0.707101 0
    outer loop
      vertex 122.017 58.0999 1.2
      vertex 122.25 57.8675 1.2
      vertex 122.25 57.8675 1.5
    endloop
  endfacet
  facet normal -0.707113 -0.707101 0
    outer loop
      vertex 122.017 58.0999 1.2
      vertex 122.25 57.8675 1.5
      vertex 122.017 58.0999 1.5
    endloop
  endfacet
  facet normal -0.965923 -0.258828 0
    outer loop
      vertex 122.25 57.8675 1.2
      vertex 122.335 57.55 1.2
      vertex 122.335 57.55 1.5
    endloop
  endfacet
  facet normal -0.965923 -0.258828 0
    outer loop
      vertex 122.25 57.8675 1.2
      vertex 122.335 57.55 1.5
      vertex 122.25 57.8675 1.5
    endloop
  endfacet
  facet normal -0.965918 0.258847 0
    outer loop
      vertex 129.835 57.55 1.2
      vertex 129.75 57.2325 1.2
      vertex 129.75 57.2325 1.5
    endloop
  endfacet
  facet normal -0.965918 0.258847 0
    outer loop
      vertex 129.835 57.55 1.2
      vertex 129.75 57.2325 1.5
      vertex 129.835 57.55 1.5
    endloop
  endfacet
  facet normal -0.707107 0.707107 0
    outer loop
      vertex 129.75 57.2325 1.2
      vertex 129.517 57.0001 1.2
      vertex 129.517 57.0001 1.5
    endloop
  endfacet
  facet normal -0.707107 0.707107 0
    outer loop
      vertex 129.75 57.2325 1.2
      vertex 129.517 57.0001 1.5
      vertex 129.75 57.2325 1.5
    endloop
  endfacet
  facet normal -0.258821 0.965925 0
    outer loop
      vertex 129.517 57.0001 1.2
      vertex 129.2 56.915 1.2
      vertex 129.2 56.915 1.5
    endloop
  endfacet
  facet normal -0.258821 0.965925 0
    outer loop
      vertex 129.517 57.0001 1.2
      vertex 129.2 56.915 1.5
      vertex 129.517 57.0001 1.5
    endloop
  endfacet
  facet normal 0.258798 0.965931 0
    outer loop
      vertex 129.2 56.915 1.2
      vertex 128.883 57.0001 1.2
      vertex 128.883 57.0001 1.5
    endloop
  endfacet
  facet normal 0.258798 0.965931 0
    outer loop
      vertex 129.2 56.915 1.2
      vertex 128.883 57.0001 1.5
      vertex 129.2 56.915 1.5
    endloop
  endfacet
  facet normal 0.707124 0.707089 0
    outer loop
      vertex 128.883 57.0001 1.2
      vertex 128.65 57.2325 1.2
      vertex 128.65 57.2325 1.5
    endloop
  endfacet
  facet normal 0.707124 0.707089 0
    outer loop
      vertex 128.883 57.0001 1.2
      vertex 128.65 57.2325 1.5
      vertex 128.883 57.0001 1.5
    endloop
  endfacet
  facet normal 0.965916 0.258856 0
    outer loop
      vertex 128.65 57.2325 1.2
      vertex 128.565 57.55 1.2
      vertex 128.565 57.55 1.5
    endloop
  endfacet
  facet normal 0.965916 0.258856 0
    outer loop
      vertex 128.65 57.2325 1.2
      vertex 128.565 57.55 1.5
      vertex 128.65 57.2325 1.5
    endloop
  endfacet
  facet normal -0.707113 -0.707101 0
    outer loop
      vertex 129.517 58.0999 1.2
      vertex 129.75 57.8675 1.2
      vertex 129.75 57.8675 1.5
    endloop
  endfacet
  facet normal 0.965918 -0.258847 0
    outer loop
      vertex 128.565 57.55 1.2
      vertex 128.65 57.8675 1.2
      vertex 128.65 57.8675 1.5
    endloop
  endfacet
  facet normal 0.965918 -0.258847 0
    outer loop
      vertex 128.565 57.55 1.2
      vertex 128.65 57.8675 1.5
      vertex 128.565 57.55 1.5
    endloop
  endfacet
  facet normal 0.70706 -0.707153 0
    outer loop
      vertex 128.65 57.8675 1.2
      vertex 128.883 58.0999 1.2
      vertex 128.883 58.0999 1.5
    endloop
  endfacet
  facet normal 0.70706 -0.707153 0
    outer loop
      vertex 128.65 57.8675 1.2
      vertex 128.883 58.0999 1.5
      vertex 128.65 57.8675 1.5
    endloop
  endfacet
  facet normal 0.258821 -0.965925 0
    outer loop
      vertex 128.883 58.0999 1.2
      vertex 129.2 58.185 1.2
      vertex 129.2 58.185 1.5
    endloop
  endfacet
  facet normal 0.258821 -0.965925 0
    outer loop
      vertex 128.883 58.0999 1.2
      vertex 129.2 58.185 1.5
      vertex 128.883 58.0999 1.5
    endloop
  endfacet
  facet normal -0.258821 -0.965925 0
    outer loop
      vertex 129.2 58.185 1.2
      vertex 129.517 58.0999 1.2
      vertex 129.517 58.0999 1.5
    endloop
  endfacet
  facet normal -0.258821 -0.965925 0
    outer loop
      vertex 129.2 58.185 1.2
      vertex 129.517 58.0999 1.5
      vertex 129.2 58.185 1.5
    endloop
  endfacet
  facet normal -0.707113 -0.707101 0
    outer loop
      vertex 129.517 58.0999 1.2
      vertex 129.75 57.8675 1.5
      vertex 129.517 58.0999 1.5
    endloop
  endfacet
  facet normal -0.965918 -0.25885 0
    outer loop
      vertex 129.75 57.8675 1.2
      vertex 129.835 57.55 1.2
      vertex 129.835 57.55 1.5
    endloop
  endfacet
  facet normal -0.965918 -0.25885 0
    outer loop
      vertex 129.75 57.8675 1.2
      vertex 129.835 57.55 1.5
      vertex 129.75 57.8675 1.5
    endloop
  endfacet
  facet normal -0.965918 0.258847 0
    outer loop
      vertex 129.835 46.3 1.2
      vertex 129.75 45.9825 1.2
      vertex 129.75 45.9825 1.5
    endloop
  endfacet
  facet normal -0.965918 0.258847 0
    outer loop
      vertex 129.835 46.3 1.2
      vertex 129.75 45.9825 1.5
      vertex 129.835 46.3 1.5
    endloop
  endfacet
  facet normal -0.707107 0.707107 0
    outer loop
      vertex 129.75 45.9825 1.2
      vertex 129.517 45.7501 1.2
      vertex 129.517 45.7501 1.5
    endloop
  endfacet
  facet normal -0.707107 0.707107 0
    outer loop
      vertex 129.75 45.9825 1.2
      vertex 129.517 45.7501 1.5
      vertex 129.75 45.9825 1.5
    endloop
  endfacet
  facet normal -0.258821 0.965925 0
    outer loop
      vertex 129.517 45.7501 1.2
      vertex 129.2 45.665 1.2
      vertex 129.2 45.665 1.5
    endloop
  endfacet
  facet normal -0.258821 0.965925 0
    outer loop
      vertex 129.517 45.7501 1.2
      vertex 129.2 45.665 1.5
      vertex 129.517 45.7501 1.5
    endloop
  endfacet
  facet normal 0.258798 0.965931 0
    outer loop
      vertex 129.2 45.665 1.2
      vertex 128.883 45.7501 1.2
      vertex 128.883 45.7501 1.5
    endloop
  endfacet
  facet normal 0.258798 0.965931 0
    outer loop
      vertex 129.2 45.665 1.2
      vertex 128.883 45.7501 1.5
      vertex 129.2 45.665 1.5
    endloop
  endfacet
  facet normal 0.707124 0.707089 0
    outer loop
      vertex 128.883 45.7501 1.2
      vertex 128.65 45.9825 1.2
      vertex 128.65 45.9825 1.5
    endloop
  endfacet
  facet normal 0.707124 0.707089 0
    outer loop
      vertex 128.883 45.7501 1.2
      vertex 128.65 45.9825 1.5
      vertex 128.883 45.7501 1.5
    endloop
  endfacet
  facet normal 0.965916 0.258856 0
    outer loop
      vertex 128.65 45.9825 1.2
      vertex 128.565 46.3 1.2
      vertex 128.565 46.3 1.5
    endloop
  endfacet
  facet normal 0.965916 0.258856 0
    outer loop
      vertex 128.65 45.9825 1.2
      vertex 128.565 46.3 1.5
      vertex 128.65 45.9825 1.5
    endloop
  endfacet
  facet normal 0.965918 -0.258847 0
    outer loop
      vertex 128.565 46.3 1.2
      vertex 128.65 46.6175 1.2
      vertex 128.65 46.6175 1.5
    endloop
  endfacet
  facet normal 0.965918 -0.258847 0
    outer loop
      vertex 128.565 46.3 1.2
      vertex 128.65 46.6175 1.5
      vertex 128.565 46.3 1.5
    endloop
  endfacet
  facet normal 0.70706 -0.707153 0
    outer loop
      vertex 128.65 46.6175 1.2
      vertex 128.883 46.8499 1.2
      vertex 128.883 46.8499 1.5
    endloop
  endfacet
  facet normal 0.70706 -0.707153 0
    outer loop
      vertex 128.65 46.6175 1.2
      vertex 128.883 46.8499 1.5
      vertex 128.65 46.6175 1.5
    endloop
  endfacet
  facet normal 0.258821 -0.965925 0
    outer loop
      vertex 128.883 46.8499 1.2
      vertex 129.2 46.935 1.2
      vertex 129.2 46.935 1.5
    endloop
  endfacet
  facet normal 0.258821 -0.965925 0
    outer loop
      vertex 128.883 46.8499 1.2
      vertex 129.2 46.935 1.5
      vertex 128.883 46.8499 1.5
    endloop
  endfacet
  facet normal -0.258821 -0.965925 0
    outer loop
      vertex 129.2 46.935 1.2
      vertex 129.517 46.8499 1.2
      vertex 129.517 46.8499 1.5
    endloop
  endfacet
  facet normal -0.258821 -0.965925 0
    outer loop
      vertex 129.2 46.935 1.2
      vertex 129.517 46.8499 1.5
      vertex 129.2 46.935 1.5
    endloop
  endfacet
  facet normal -0.707113 -0.707101 0
    outer loop
      vertex 129.517 46.8499 1.2
      vertex 129.75 46.6175 1.2
      vertex 129.75 46.6175 1.5
    endloop
  endfacet
  facet normal -0.707113 -0.707101 0
    outer loop
      vertex 129.517 46.8499 1.2
      vertex 129.75 46.6175 1.5
      vertex 129.517 46.8499 1.5
    endloop
  endfacet
  facet normal -0.965918 -0.25885 0
    outer loop
      vertex 129.75 46.6175 1.2
      vertex 129.835 46.3 1.2
      vertex 129.835 46.3 1.5
    endloop
  endfacet
  facet normal -0.965918 -0.25885 0
    outer loop
      vertex 129.75 46.6175 1.2
      vertex 129.835 46.3 1.5
      vertex 129.75 46.6175 1.5
    endloop
  endfacet
  facet normal 1 0 0
    outer loop
      vertex 149.995 35.005 1.2
      vertex 149.995 84.995 1.2
      vertex 149.995 84.995 1.5
    endloop
  endfacet
  facet normal 1 0 0
    outer loop
      vertex 149.995 35.005 1.2
      vertex 149.995 84.995 1.5
      vertex 149.995 35.005 1.5
    endloop
  endfacet
  facet normal 0 1 0
    outer loop
      vertex 149.995 84.995 1.2
      vertex 100.005 84.995 1.2
      vertex 100.005 84.995 1.5
    endloop
  endfacet
  facet normal 0 1 0
    outer loop
      vertex 149.995 84.995 1.2
      vertex 100.005 84.995 1.5
      vertex 149.995 84.995 1.5
    endloop
  endfacet
  facet normal -1 0 0
    outer loop
      vertex 100.005 84.995 1.2
      vertex 100.005 35.005 1.2
      vertex 100.005 35.005 1.5
    endloop
  endfacet
  facet normal -1 0 0
    outer loop
      vertex 100.005 84.995 1.2
      vertex 100.005 35.005 1.5
      vertex 100.005 84.995 1.5
    endloop
  endfacet
  facet normal 0 -1 0
    outer loop
      vertex 100.005 35.005 1.2
      vertex 149.995 35.005 1.2
      vertex 149.995 35.005 1.5
    endloop
  endfacet
  facet normal 0 -1 0
    outer loop
      vertex 100.005 35.005 1.2
      vertex 149.995 35.005 1.5
      vertex 100.005 35.005 1.5
    endloop
  endfacet
  facet normal -0.965918 0.258847 0
    outer loop
      vertex 137.335 57.55 1.2
      vertex 137.25 57.2325 1.2
      vertex 137.25 57.2325 1.5
    endloop
  endfacet
  facet normal -0.965918 0.258847 0
    outer loop
      vertex 137.335 57.55 1.2
      vertex 137.25 57.2325 1.5
      vertex 137.335 57.55 1.5
    endloop
  endfacet
  facet normal -0.707107 0.707107 0
    outer loop
      vertex 137.25 57.2325 1.2
      vertex 137.017 57.0001 1.2
      vertex 137.017 57.0001 1.5
    endloop
  endfacet
  facet normal -0.707107 0.707107 0
    outer loop
      vertex 137.25 57.2325 1.2
      vertex 137.017 57.0001 1.5
      vertex 137.25 57.2325 1.5
    endloop
  endfacet
  facet normal -0.258821 0.965925 0
    outer loop
      vertex 137.017 57.0001 1.2
      vertex 136.7 56.915 1.2
      vertex 136.7 56.915 1.5
    endloop
  endfacet
  facet normal -0.258821 0.965925 0
    outer loop
      vertex 137.017 57.0001 1.2
      vertex 136.7 56.915 1.5
      vertex 137.017 57.0001 1.5
    endloop
  endfacet
  facet normal 0.258798 0.965931 0
    outer loop
      vertex 136.7 56.915 1.2
      vertex 136.383 57.0001 1.2
      vertex 136.383 57.0001 1.5
    endloop
  endfacet
  facet normal 0.258798 0.965931 0
    outer loop
      vertex 136.7 56.915 1.2
      vertex 136.383 57.0001 1.5
      vertex 136.7 56.915 1.5
    endloop
  endfacet
  facet normal 0.707124 0.707089 0
    outer loop
      vertex 136.383 57.0001 1.2
      vertex 136.15 57.2325 1.2
      vertex 136.15 57.2325 1.5
    endloop
  endfacet
  facet normal 0.707124 0.707089 0
    outer loop
      vertex 136.383 57.0001 1.2
      vertex 136.15 57.2325 1.5
      vertex 136.383 57.0001 1.5
    endloop
  endfacet
  facet normal 0.965939 0.258769 0
    outer loop
      vertex 136.15 57.2325 1.2
      vertex 136.065 57.55 1.2
      vertex 136.065 57.55 1.5
    endloop
  endfacet
  facet normal 0.965939 0.258769 0
    outer loop
      vertex 136.15 57.2325 1.2
      vertex 136.065 57.55 1.5
      vertex 136.15 57.2325 1.5
    endloop
  endfacet
  facet normal 0.965942 -0.25876 0
    outer loop
      vertex 136.065 57.55 1.2
      vertex 136.15 57.8675 1.2
      vertex 136.15 57.8675 1.5
    endloop
  endfacet
  facet normal 0.965942 -0.25876 0
    outer loop
      vertex 136.065 57.55 1.2
      vertex 136.15 57.8675 1.5
      vertex 136.065 57.55 1.5
    endloop
  endfacet
  facet normal 0.70706 -0.707153 0
    outer loop
      vertex 136.15 57.8675 1.2
      vertex 136.383 58.0999 1.2
      vertex 136.383 58.0999 1.5
    endloop
  endfacet
  facet normal 0.70706 -0.707153 0
    outer loop
      vertex 136.15 57.8675 1.2
      vertex 136.383 58.0999 1.5
      vertex 136.15 57.8675 1.5
    endloop
  endfacet
  facet normal 0.258821 -0.965925 0
    outer loop
      vertex 136.383 58.0999 1.2
      vertex 136.7 58.185 1.2
      vertex 136.7 58.185 1.5
    endloop
  endfacet
  facet normal 0.258821 -0.965925 0
    outer loop
      vertex 136.383 58.0999 1.2
      vertex 136.7 58.185 1.5
      vertex 136.383 58.0999 1.5
    endloop
  endfacet
  facet normal -0.258821 -0.965925 0
    outer loop
      vertex 136.7 58.185 1.2
      vertex 137.017 58.0999 1.2
      vertex 137.017 58.0999 1.5
    endloop
  endfacet
  facet normal -0.258821 -0.965925 0
    outer loop
      vertex 136.7 58.185 1.2
      vertex 137.017 58.0999 1.5
      vertex 136.7 58.185 1.5
    endloop
  endfacet
  facet normal -0.707113 -0.707101 0
    outer loop
      vertex 137.017 58.0999 1.2
      vertex 137.25 57.8675 1.2
      vertex 137.25 57.8675 1.5
    endloop
  endfacet
  facet normal -0.707113 -0.707101 0
    outer loop
      vertex 137.017 58.0999 1.2
      vertex 137.25 57.8675 1.5
      vertex 137.017 58.0999 1.5
    endloop
  endfacet
  facet normal -0.965918 -0.25885 0
    outer loop
      vertex 137.25 57.8675 1.2
      vertex 137.335 57.55 1.2
      vertex 137.335 57.55 1.5
    endloop
  endfacet
  facet normal -0.965918 -0.25885 0
    outer loop
      vertex 137.25 57.8675 1.2
      vertex 137.335 57.55 1.5
      vertex 137.25 57.8675 1.5
    endloop
  endfacet
  facet normal -0.965918 0.258847 0
    outer loop
      vertex 137.335 46.3 1.2
      vertex 137.25 45.9825 1.2
      vertex 137.25 45.9825 1.5
    endloop
  endfacet
  facet normal -0.965918 0.258847 0
    outer loop
      vertex 137.335 46.3 1.2
      vertex 137.25 45.9825 1.5
      vertex 137.335 46.3 1.5
    endloop
  endfacet
  facet normal -0.707107 0.707107 0
    outer loop
      vertex 137.25 45.9825 1.2
      vertex 137.017 45.7501 1.2
      vertex 137.017 45.7501 1.5
    endloop
  endfacet
  facet normal -0.707107 0.707107 0
    outer loop
      vertex 137.25 45.9825 1.2
      vertex 137.017 45.7501 1.5
      vertex 137.25 45.9825 1.5
    endloop
  endfacet
  facet normal -0.258821 0.965925 0
    outer loop
      vertex 137.017 45.7501 1.2
      vertex 136.7 45.665 1.2
      vertex 136.7 45.665 1.5
    endloop
  endfacet
  facet normal -0.258821 0.965925 0
    outer loop
      vertex 137.017 45.7501 1.2
      vertex 136.7 45.665 1.5
      vertex 137.017 45.7501 1.5
    endloop
  endfacet
  facet normal 0.258798 0.965931 0
    outer loop
      vertex 136.7 45.665 1.2
      vertex 136.383 45.7501 1.2
      vertex 136.383 45.7501 1.5
    endloop
  endfacet
  facet normal 0.258798 0.965931 0
    outer loop
      vertex 136.7 45.665 1.2
      vertex 136.383 45.7501 1.5
      vertex 136.7 45.665 1.5
    endloop
  endfacet
  facet normal 0.707124 0.707089 0
    outer loop
      vertex 136.383 45.7501 1.2
      vertex 136.15 45.9825 1.2
      vertex 136.15 45.9825 1.5
    endloop
  endfacet
  facet normal 0.707124 0.707089 0
    outer loop
      vertex 136.383 45.7501 1.2
      vertex 136.15 45.9825 1.5
      vertex 136.383 45.7501 1.5
    endloop
  endfacet
  facet normal 0.965939 0.258769 0
    outer loop
      vertex 136.15 45.9825 1.2
      vertex 136.065 46.3 1.2
      vertex 136.065 46.3 1.5
    endloop
  endfacet
  facet normal 0.965939 0.258769 0
    outer loop
      vertex 136.15 45.9825 1.2
      vertex 136.065 46.3 1.5
      vertex 136.15 45.9825 1.5
    endloop
  endfacet
  facet normal 0.965942 -0.25876 0
    outer loop
      vertex 136.065 46.3 1.2
      vertex 136.15 46.6175 1.2
      vertex 136.15 46.6175 1.5
    endloop
  endfacet
  facet normal 0.965942 -0.25876 0
    outer loop
      vertex 136.065 46.3 1.2
      vertex 136.15 46.6175 1.5
      vertex 136.065 46.3 1.5
    endloop
  endfacet
  facet normal 0.70706 -0.707153 0
    outer loop
      vertex 136.15 46.6175 1.2
      vertex 136.383 46.8499 1.2
      vertex 136.383 46.8499 1.5
    endloop
  endfacet
  facet normal 0.70706 -0.707153 0
    outer loop
      vertex 136.15 46.6175 1.2
      vertex 136.383 46.8499 1.5
      vertex 136.15 46.6175 1.5
    endloop
  endfacet
  facet normal 0.258821 -0.965925 0
    outer loop
      vertex 136.383 46.8499 1.2
      vertex 136.7 46.935 1.2
      vertex 136.7 46.935 1.5
    endloop
  endfacet
  facet normal 0.258821 -0.965925 0
    outer loop
      vertex 136.383 46.8499 1.2
      vertex 136.7 46.935 1.5
      vertex 136.383 46.8499 1.5
    endloop
  endfacet
  facet normal -0.258821 -0.965925 0
    outer loop
      vertex 136.7 46.935 1.2
      vertex 137.017 46.8499 1.2
      vertex 137.017 46.8499 1.5
    endloop
  endfacet
  facet normal -0.258821 -0.965925 0
    outer loop
      vertex 136.7 46.935 1.2
      vertex 137.017 46.8499 1.5
      vertex 136.7 46.935 1.5
    endloop
  endfacet
  facet normal -0.707113 -0.707101 0
    outer loop
      vertex 137.017 46.8499 1.2
      vertex 137.25 46.6175 1.2
      vertex 137.25 46.6175 1.5
    endloop
  endfacet
  facet normal -0.707113 -0.707101 0
    outer loop
      vertex 137.017 46.8499 1.2
      vertex 137.25 46.6175 1.5
      vertex 137.017 46.8499 1.5
    endloop
  endfacet
  facet normal -0.965918 -0.25885 0
    outer loop
      vertex 137.25 46.6175 1.2
      vertex 137.335 46.3 1.2
      vertex 137.335 46.3 1.5
    endloop
  endfacet
  facet normal -0.965918 -0.25885 0
    outer loop
      vertex 137.25 46.6175 1.2
      vertex 137.335 46.3 1.5
      vertex 137.25 46.6175 1.5
    endloop
  endfacet
  facet normal 0 0 -1
    outer loop
      vertex 107.335 46.3 1.2
      vertex 107.25 57.2325 1.2
      vertex 107.335 57.55 1.2
    endloop
  endfacet
  facet normal 0 0 -1
    outer loop
      vertex 113.65 45.9825 1.2
      vertex 107.335 46.3 1.2
      vertex 107.335 57.55 1.2
    endloop
  endfacet
  facet normal 0 0 -1
    outer loop
      vertex 113.565 46.3 1.2
      vertex 113.65 45.9825 1.2
      vertex 107.335 57.55 1.2
    endloop
  endfacet
  facet normal 0 0 -1
    outer loop
      vertex 113.565 57.55 1.2
      vertex 113.565 46.3 1.2
      vertex 107.335 57.55 1.2
    endloop
  endfacet
  facet normal 0 0 -1
    outer loop
      vertex 113.65 57.8675 1.2
      vertex 113.565 57.55 1.2
      vertex 107.335 57.55 1.2
    endloop
  endfacet
  facet normal 0 0 -1
    outer loop
      vertex 113.883 58.0999 1.2
      vertex 113.65 57.8675 1.2
      vertex 107.335 57.55 1.2
    endloop
  endfacet
  facet normal 0 0 -1
    outer loop
      vertex 149.995 84.995 1.2
      vertex 113.883 58.0999 1.2
      vertex 107.335 57.55 1.2
    endloop
  endfacet
  facet normal 0 0 -1
    outer loop
      vertex 107.25 57.8675 1.2
      vertex 149.995 84.995 1.2
      vertex 107.335 57.55 1.2
    endloop
  endfacet
  facet normal 0 0 -1
    outer loop
      vertex 107.017 46.8499 1.2
      vertex 107.017 57.0001 1.2
      vertex 107.25 57.2325 1.2
    endloop
  endfacet
  facet normal 0 0 -1
    outer loop
      vertex 107.25 46.6175 1.2
      vertex 107.017 46.8499 1.2
      vertex 107.25 57.2325 1.2
    endloop
  endfacet
  facet normal 0 0 -1
    outer loop
      vertex 107.335 46.3 1.2
      vertex 107.25 46.6175 1.2
      vertex 107.25 57.2325 1.2
    endloop
  endfacet
  facet normal 0 0 -1
    outer loop
      vertex 106.383 46.8499 1.2
      vertex 106.383 57.0001 1.2
      vertex 106.7 56.915 1.2
    endloop
  endfacet
  facet normal 0 0 -1
    outer loop
      vertex 106.7 46.935 1.2
      vertex 106.383 46.8499 1.2
      vertex 106.7 56.915 1.2
    endloop
  endfacet
  facet normal 0 0 -1
    outer loop
      vertex 107.017 46.8499 1.2
      vertex 106.7 46.935 1.2
      vertex 106.7 56.915 1.2
    endloop
  endfacet
  facet normal 0 0 -1
    outer loop
      vertex 107.017 57.0001 1.2
      vertex 107.017 46.8499 1.2
      vertex 106.7 56.915 1.2
    endloop
  endfacet
  facet normal 0 0 -1
    outer loop
      vertex 106.065 57.55 1.2
      vertex 106.065 46.3 1.2
      vertex 100.005 84.995 1.2
    endloop
  endfacet
  facet normal 0 0 -1
    outer loop
      vertex 106.065 57.55 1.2
      vertex 106.15 46.6175 1.2
      vertex 106.065 46.3 1.2
    endloop
  endfacet
  facet normal 0 0 -1
    outer loop
      vertex 106.15 57.2325 1.2
      vertex 106.15 46.6175 1.2
      vertex 106.065 57.55 1.2
    endloop
  endfacet
  facet normal 0 0 -1
    outer loop
      vertex 106.15 57.2325 1.2
      vertex 106.383 46.8499 1.2
      vertex 106.15 46.6175 1.2
    endloop
  endfacet
  facet normal 0 0 -1
    outer loop
      vertex 106.383 57.0001 1.2
      vertex 106.383 46.8499 1.2
      vertex 106.15 57.2325 1.2
    endloop
  endfacet
  facet normal 0 0 -1
    outer loop
      vertex 114.835 46.3 1.2
      vertex 114.75 57.2325 1.2
      vertex 114.835 57.55 1.2
    endloop
  endfacet
  facet normal 0 0 -1
    outer loop
      vertex 121.15 45.9825 1.2
      vertex 114.835 46.3 1.2
      vertex 114.835 57.55 1.2
    endloop
  endfacet
  facet normal 0 0 -1
    outer loop
      vertex 121.065 46.3 1.2
      vertex 121.15 45.9825 1.2
      vertex 114.835 57.55 1.2
    endloop
  endfacet
  facet normal 0 0 -1
    outer loop
      vertex 121.065 57.55 1.2
      vertex 121.065 46.3 1.2
      vertex 114.835 57.55 1.2
    endloop
  endfacet
  facet normal 0 0 -1
    outer loop
      vertex 121.15 57.8675 1.2
      vertex 121.065 57.55 1.2
      vertex 114.835 57.55 1.2
    endloop
  endfacet
  facet normal 0 0 -1
    outer loop
      vertex 121.383 58.0999 1.2
      vertex 121.15 57.8675 1.2
      vertex 114.835 57.55 1.2
    endloop
  endfacet
  facet normal 0 0 -1
    outer loop
      vertex 149.995 84.995 1.2
      vertex 121.383 58.0999 1.2
      vertex 114.835 57.55 1.2
    endloop
  endfacet
  facet normal 0 0 -1
    outer loop
      vertex 114.75 57.8675 1.2
      vertex 149.995 84.995 1.2
      vertex 114.835 57.55 1.2
    endloop
  endfacet
  facet normal 0 0 -1
    outer loop
      vertex 114.517 46.8499 1.2
      vertex 114.517 57.0001 1.2
      vertex 114.75 57.2325 1.2
    endloop
  endfacet
  facet normal 0 0 -1
    outer loop
      vertex 114.75 46.6175 1.2
      vertex 114.517 46.8499 1.2
      vertex 114.75 57.2325 1.2
    endloop
  endfacet
  facet normal 0 0 -1
    outer loop
      vertex 114.835 46.3 1.2
      vertex 114.75 46.6175 1.2
      vertex 114.75 57.2325 1.2
    endloop
  endfacet
  facet normal 0 0 -1
    outer loop
      vertex 113.883 46.8499 1.2
      vertex 113.883 57.0001 1.2
      vertex 114.2 56.915 1.2
    endloop
  endfacet
  facet normal 0 0 -1
    outer loop
      vertex 114.2 46.935 1.2
      vertex 113.883 46.8499 1.2
      vertex 114.2 56.915 1.2
    endloop
  endfacet
  facet normal 0 0 -1
    outer loop
      vertex 114.517 46.8499 1.2
      vertex 114.2 46.935 1.2
      vertex 114.2 56.915 1.2
    endloop
  endfacet
  facet normal 0 0 -1
    outer loop
      vertex 114.517 57.0001 1.2
      vertex 114.517 46.8499 1.2
      vertex 114.2 56.915 1.2
    endloop
  endfacet
  facet normal 0 0 -1
    outer loop
      vertex 113.65 46.6175 1.2
      vertex 113.565 57.55 1.2
      vertex 113.65 57.2325 1.2
    endloop
  endfacet
  facet normal 0 0 -1
    outer loop
      vertex 113.883 46.8499 1.2
      vertex 113.65 46.6175 1.2
      vertex 113.65 57.2325 1.2
    endloop
  endfacet
  facet normal 0 0 -1
    outer loop
      vertex 113.883 57.0001 1.2
      vertex 113.883 46.8499 1.2
      vertex 113.65 57.2325 1.2
    endloop
  endfacet
  facet normal 0 0 -1
    outer loop
      vertex 122.335 46.3 1.2
      vertex 122.25 57.2325 1.2
      vertex 122.335 57.55 1.2
    endloop
  endfacet
  facet normal 0 0 -1
    outer loop
      vertex 128.65 45.9825 1.2
      vertex 122.335 46.3 1.2
      vertex 122.335 57.55 1.2
    endloop
  endfacet
  facet normal 0 0 -1
    outer loop
      vertex 128.565 46.3 1.2
      vertex 128.65 45.9825 1.2
      vertex 122.335 57.55 1.2
    endloop
  endfacet
  facet normal 0 0 -1
    outer loop
      vertex 128.565 57.55 1.2
      vertex 128.565 46.3 1.2
      vertex 122.335 57.55 1.2
    endloop
  endfacet
  facet normal 0 0 -1
    outer loop
      vertex 122.017 46.8499 1.2
      vertex 121.7 46.935 1.2
      vertex 121.7 56.915 1.2
    endloop
  endfacet
  facet normal 0 0 -1
    outer loop
      vertex 122.017 57.0001 1.2
      vertex 122.017 46.8499 1.2
      vertex 121.7 56.915 1.2
    endloop
  endfacet
  facet normal 0 0 -1
    outer loop
      vertex 149.995 84.995 1.2
      vertex 136.15 57.8675 1.2
      vertex 129.835 57.55 1.2
    endloop
  endfacet
  facet normal 0 0 -1
    outer loop
      vertex 129.75 57.8675 1.2
      vertex 149.995 84.995 1.2
      vertex 129.835 57.55 1.2
    endloop
  endfacet
  facet normal 0 0 -1
    outer loop
      vertex 129.517 46.8499 1.2
      vertex 129.517 57.0001 1.2
      vertex 129.75 57.2325 1.2
    endloop
  endfacet
  facet normal 0 0 -1
    outer loop
      vertex 129.75 46.6175 1.2
      vertex 129.517 46.8499 1.2
      vertex 129.75 57.2325 1.2
    endloop
  endfacet
  facet normal 0 0 -1
    outer loop
      vertex 128.65 57.8675 1.2
      vertex 128.565 57.55 1.2
      vertex 122.335 57.55 1.2
    endloop
  endfacet
  facet normal 0 0 -1
    outer loop
      vertex 149.995 84.995 1.2
      vertex 128.65 57.8675 1.2
      vertex 122.335 57.55 1.2
    endloop
  endfacet
  facet normal 0 0 -1
    outer loop
      vertex 122.25 57.8675 1.2
      vertex 149.995 84.995 1.2
      vertex 122.335 57.55 1.2
    endloop
  endfacet
  facet normal 0 0 -1
    outer loop
      vertex 122.017 46.8499 1.2
      vertex 122.017 57.0001 1.2
      vertex 122.25 57.2325 1.2
    endloop
  endfacet
  facet normal 0 0 -1
    outer loop
      vertex 122.25 46.6175 1.2
      vertex 122.017 46.8499 1.2
      vertex 122.25 57.2325 1.2
    endloop
  endfacet
  facet normal 0 0 -1
    outer loop
      vertex 122.335 46.3 1.2
      vertex 122.25 46.6175 1.2
      vertex 122.25 57.2325 1.2
    endloop
  endfacet
  facet normal 0 0 -1
    outer loop
      vertex 121.383 46.8499 1.2
      vertex 121.383 57.0001 1.2
      vertex 121.7 56.915 1.2
    endloop
  endfacet
  facet normal 0 0 -1
    outer loop
      vertex 121.7 46.935 1.2
      vertex 121.383 46.8499 1.2
      vertex 121.7 56.915 1.2
    endloop
  endfacet
  facet normal 0 0 -1
    outer loop
      vertex 121.15 46.6175 1.2
      vertex 121.065 57.55 1.2
      vertex 121.15 57.2325 1.2
    endloop
  endfacet
  facet normal 0 0 -1
    outer loop
      vertex 121.383 46.8499 1.2
      vertex 121.15 46.6175 1.2
      vertex 121.15 57.2325 1.2
    endloop
  endfacet
  facet normal 0 0 -1
    outer loop
      vertex 121.383 57.0001 1.2
      vertex 121.383 46.8499 1.2
      vertex 121.15 57.2325 1.2
    endloop
  endfacet
  facet normal 0 0 -1
    outer loop
      vertex 129.835 46.3 1.2
      vertex 129.75 57.2325 1.2
      vertex 129.835 57.55 1.2
    endloop
  endfacet
  facet normal 0 0 -1
    outer loop
      vertex 136.15 45.9825 1.2
      vertex 129.835 46.3 1.2
      vertex 129.835 57.55 1.2
    endloop
  endfacet
  facet normal 0 0 -1
    outer loop
      vertex 136.065 46.3 1.2
      vertex 136.15 45.9825 1.2
      vertex 129.835 57.55 1.2
    endloop
  endfacet
  facet normal 0 0 -1
    outer loop
      vertex 136.065 57.55 1.2
      vertex 136.065 46.3 1.2
      vertex 129.835 57.55 1.2
    endloop
  endfacet
  facet normal 0 0 -1
    outer loop
      vertex 136.15 57.8675 1.2
      vertex 136.065 57.55 1.2
      vertex 129.835 57.55 1.2
    endloop
  endfacet
  facet normal 0 0 -1
    outer loop
      vertex 129.835 46.3 1.2
      vertex 129.75 46.6175 1.2
      vertex 129.75 57.2325 1.2
    endloop
  endfacet
  facet normal 0 0 -1
    outer loop
      vertex 128.883 46.8499 1.2
      vertex 128.883 57.0001 1.2
      vertex 129.2 56.915 1.2
    endloop
  endfacet
  facet normal 0 0 -1
    outer loop
      vertex 129.2 46.935 1.2
      vertex 128.883 46.8499 1.2
      vertex 129.2 56.915 1.2
    endloop
  endfacet
  facet normal 0 0 -1
    outer loop
      vertex 129.517 46.8499 1.2
      vertex 129.2 46.935 1.2
      vertex 129.2 56.915 1.2
    endloop
  endfacet
  facet normal 0 0 -1
    outer loop
      vertex 129.517 57.0001 1.2
      vertex 129.517 46.8499 1.2
      vertex 129.2 56.915 1.2
    endloop
  endfacet
  facet normal 0 0 -1
    outer loop
      vertex 128.65 46.6175 1.2
      vertex 128.565 57.55 1.2
      vertex 128.65 57.2325 1.2
    endloop
  endfacet
  facet normal 0 0 -1
    outer loop
      vertex 128.883 46.8499 1.2
      vertex 128.65 46.6175 1.2
      vertex 128.65 57.2325 1.2
    endloop
  endfacet
  facet normal 0 0 -1
    outer loop
      vertex 128.883 57.0001 1.2
      vertex 128.883 46.8499 1.2
      vertex 128.65 57.2325 1.2
    endloop
  endfacet
  facet normal 0 0 -1
    outer loop
      vertex 137.25 57.2325 1.2
      vertex 137.25 46.6175 1.2
      vertex 137.017 46.8499 1.2
    endloop
  endfacet
  facet normal 0 0 -1
    outer loop
      vertex 137.25 57.2325 1.2
      vertex 137.335 46.3 1.2
      vertex 137.25 46.6175 1.2
    endloop
  endfacet
  facet normal 0 0 -1
    outer loop
      vertex 137.335 57.55 1.2
      vertex 137.335 46.3 1.2
      vertex 137.25 57.2325 1.2
    endloop
  endfacet
  facet normal 0 0 -1
    outer loop
      vertex 137.335 57.55 1.2
      vertex 149.995 35.005 1.2
      vertex 137.335 46.3 1.2
    endloop
  endfacet
  facet normal 0 0 -1
    outer loop
      vertex 149.995 84.995 1.2
      vertex 149.995 35.005 1.2
      vertex 137.335 57.55 1.2
    endloop
  endfacet
  facet normal 0 0 -1
    outer loop
      vertex 136.7 56.915 1.2
      vertex 136.7 46.935 1.2
      vertex 136.383 46.8499 1.2
    endloop
  endfacet
  facet normal 0 0 -1
    outer loop
      vertex 136.7 56.915 1.2
      vertex 137.017 46.8499 1.2
      vertex 136.7 46.935 1.2
    endloop
  endfacet
  facet normal 0 0 -1
    outer loop
      vertex 137.017 57.0001 1.2
      vertex 137.017 46.8499 1.2
      vertex 136.7 56.915 1.2
    endloop
  endfacet
  facet normal 0 0 -1
    outer loop
      vertex 137.017 57.0001 1.2
      vertex 137.25 57.2325 1.2
      vertex 137.017 46.8499 1.2
    endloop
  endfacet
  facet normal 0 0 -1
    outer loop
      vertex 136.383 46.8499 1.2
      vertex 136.383 57.0001 1.2
      vertex 136.7 56.915 1.2
    endloop
  endfacet
  facet normal 0 0 -1
    outer loop
      vertex 137.335 57.55 1.2
      vertex 137.25 57.8675 1.2
      vertex 149.995 84.995 1.2
    endloop
  endfacet
  facet normal 0 0 -1
    outer loop
      vertex 128.883 58.0999 1.2
      vertex 128.65 57.8675 1.2
      vertex 149.995 84.995 1.2
    endloop
  endfacet
  facet normal 0 0 -1
    outer loop
      vertex 129.2 58.185 1.2
      vertex 128.883 58.0999 1.2
      vertex 149.995 84.995 1.2
    endloop
  endfacet
  facet normal 0 0 -1
    outer loop
      vertex 129.517 58.0999 1.2
      vertex 129.2 58.185 1.2
      vertex 149.995 84.995 1.2
    endloop
  endfacet
  facet normal 0 0 -1
    outer loop
      vertex 136.383 46.8499 1.2
      vertex 136.15 57.2325 1.2
      vertex 136.383 57.0001 1.2
    endloop
  endfacet
  facet normal 0 0 -1
    outer loop
      vertex 136.15 46.6175 1.2
      vertex 136.15 57.2325 1.2
      vertex 136.383 46.8499 1.2
    endloop
  endfacet
  facet normal 0 0 -1
    outer loop
      vertex 136.15 46.6175 1.2
      vertex 136.065 57.55 1.2
      vertex 136.15 57.2325 1.2
    endloop
  endfacet
  facet normal 0 0 -1
    outer loop
      vertex 136.065 46.3 1.2
      vertex 136.065 57.55 1.2
      vertex 136.15 46.6175 1.2
    endloop
  endfacet
  facet normal 0 0 -1
    outer loop
      vertex 136.383 58.0999 1.2
      vertex 136.15 57.8675 1.2
      vertex 149.995 84.995 1.2
    endloop
  endfacet
  facet normal 0 0 -1
    outer loop
      vertex 136.7 58.185 1.2
      vertex 136.383 58.0999 1.2
      vertex 149.995 84.995 1.2
    endloop
  endfacet
  facet normal 0 0 -1
    outer loop
      vertex 137.017 58.0999 1.2
      vertex 136.7 58.185 1.2
      vertex 149.995 84.995 1.2
    endloop
  endfacet
  facet normal 0 0 -1
    outer loop
      vertex 137.25 57.8675 1.2
      vertex 137.017 58.0999 1.2
      vertex 149.995 84.995 1.2
    endloop
  endfacet
  facet normal 0 0 -1
    outer loop
      vertex 129.75 57.8675 1.2
      vertex 129.517 58.0999 1.2
      vertex 149.995 84.995 1.2
    endloop
  endfacet
  facet normal 0 0 -1
    outer loop
      vertex 121.7 58.185 1.2
      vertex 121.383 58.0999 1.2
      vertex 149.995 84.995 1.2
    endloop
  endfacet
  facet normal 0 0 -1
    outer loop
      vertex 122.017 58.0999 1.2
      vertex 121.7 58.185 1.2
      vertex 149.995 84.995 1.2
    endloop
  endfacet
  facet normal 0 0 -1
    outer loop
      vertex 122.25 57.8675 1.2
      vertex 122.017 58.0999 1.2
      vertex 149.995 84.995 1.2
    endloop
  endfacet
  facet normal 0 0 -1
    outer loop
      vertex 114.2 58.185 1.2
      vertex 113.883 58.0999 1.2
      vertex 149.995 84.995 1.2
    endloop
  endfacet
  facet normal 0 0 -1
    outer loop
      vertex 114.517 58.0999 1.2
      vertex 114.2 58.185 1.2
      vertex 149.995 84.995 1.2
    endloop
  endfacet
  facet normal 0 0 -1
    outer loop
      vertex 114.75 57.8675 1.2
      vertex 114.517 58.0999 1.2
      vertex 149.995 84.995 1.2
    endloop
  endfacet
  facet normal 0 0 -1
    outer loop
      vertex 106.383 58.0999 1.2
      vertex 100.005 84.995 1.2
      vertex 149.995 84.995 1.2
    endloop
  endfacet
  facet normal 0 0 -1
    outer loop
      vertex 106.7 58.185 1.2
      vertex 106.383 58.0999 1.2
      vertex 149.995 84.995 1.2
    endloop
  endfacet
  facet normal 0 0 -1
    outer loop
      vertex 107.017 58.0999 1.2
      vertex 106.7 58.185 1.2
      vertex 149.995 84.995 1.2
    endloop
  endfacet
  facet normal 0 0 -1
    outer loop
      vertex 107.25 57.8675 1.2
      vertex 107.017 58.0999 1.2
      vertex 149.995 84.995 1.2
    endloop
  endfacet
  facet normal 0 0 -1
    outer loop
      vertex 100.005 84.995 1.2
      vertex 106.383 58.0999 1.2
      vertex 106.15 57.8675 1.2
    endloop
  endfacet
  facet normal 0 0 -1
    outer loop
      vertex 106.065 57.55 1.2
      vertex 100.005 84.995 1.2
      vertex 106.15 57.8675 1.2
    endloop
  endfacet
  facet normal 0 0 -1
    outer loop
      vertex 137.25 45.9825 1.2
      vertex 137.335 46.3 1.2
      vertex 149.995 35.005 1.2
    endloop
  endfacet
  facet normal 0 0 -1
    outer loop
      vertex 137.017 45.7501 1.2
      vertex 137.25 45.9825 1.2
      vertex 149.995 35.005 1.2
    endloop
  endfacet
  facet normal 0 0 -1
    outer loop
      vertex 136.7 45.665 1.2
      vertex 137.017 45.7501 1.2
      vertex 149.995 35.005 1.2
    endloop
  endfacet
  facet normal 0 0 -1
    outer loop
      vertex 136.383 45.7501 1.2
      vertex 136.7 45.665 1.2
      vertex 149.995 35.005 1.2
    endloop
  endfacet
  facet normal 0 0 -1
    outer loop
      vertex 129.835 46.3 1.2
      vertex 136.383 45.7501 1.2
      vertex 149.995 35.005 1.2
    endloop
  endfacet
  facet normal 0 0 -1
    outer loop
      vertex 129.75 45.9825 1.2
      vertex 129.835 46.3 1.2
      vertex 149.995 35.005 1.2
    endloop
  endfacet
  facet normal 0 0 -1
    outer loop
      vertex 129.517 45.7501 1.2
      vertex 129.75 45.9825 1.2
      vertex 149.995 35.005 1.2
    endloop
  endfacet
  facet normal 0 0 -1
    outer loop
      vertex 129.2 45.665 1.2
      vertex 129.517 45.7501 1.2
      vertex 149.995 35.005 1.2
    endloop
  endfacet
  facet normal 0 0 -1
    outer loop
      vertex 128.883 45.7501 1.2
      vertex 129.2 45.665 1.2
      vertex 149.995 35.005 1.2
    endloop
  endfacet
  facet normal 0 0 -1
    outer loop
      vertex 122.335 46.3 1.2
      vertex 128.883 45.7501 1.2
      vertex 149.995 35.005 1.2
    endloop
  endfacet
  facet normal 0 0 -1
    outer loop
      vertex 122.25 45.9825 1.2
      vertex 122.335 46.3 1.2
      vertex 149.995 35.005 1.2
    endloop
  endfacet
  facet normal 0 0 -1
    outer loop
      vertex 122.017 45.7501 1.2
      vertex 122.25 45.9825 1.2
      vertex 149.995 35.005 1.2
    endloop
  endfacet
  facet normal 0 0 -1
    outer loop
      vertex 121.7 45.665 1.2
      vertex 122.017 45.7501 1.2
      vertex 149.995 35.005 1.2
    endloop
  endfacet
  facet normal 0 0 -1
    outer loop
      vertex 121.383 45.7501 1.2
      vertex 121.7 45.665 1.2
      vertex 149.995 35.005 1.2
    endloop
  endfacet
  facet normal 0 0 -1
    outer loop
      vertex 114.835 46.3 1.2
      vertex 121.383 45.7501 1.2
      vertex 149.995 35.005 1.2
    endloop
  endfacet
  facet normal 0 0 -1
    outer loop
      vertex 114.75 45.9825 1.2
      vertex 114.835 46.3 1.2
      vertex 149.995 35.005 1.2
    endloop
  endfacet
  facet normal 0 0 -1
    outer loop
      vertex 114.517 45.7501 1.2
      vertex 114.75 45.9825 1.2
      vertex 149.995 35.005 1.2
    endloop
  endfacet
  facet normal 0 0 -1
    outer loop
      vertex 114.2 45.665 1.2
      vertex 114.517 45.7501 1.2
      vertex 149.995 35.005 1.2
    endloop
  endfacet
  facet normal 0 0 -1
    outer loop
      vertex 113.883 45.7501 1.2
      vertex 114.2 45.665 1.2
      vertex 149.995 35.005 1.2
    endloop
  endfacet
  facet normal 0 0 -1
    outer loop
      vertex 107.335 46.3 1.2
      vertex 113.883 45.7501 1.2
      vertex 149.995 35.005 1.2
    endloop
  endfacet
  facet normal 0 0 -1
    outer loop
      vertex 107.25 45.9825 1.2
      vertex 107.335 46.3 1.2
      vertex 149.995 35.005 1.2
    endloop
  endfacet
  facet normal 0 0 -1
    outer loop
      vertex 107.017 45.7501 1.2
      vertex 107.25 45.9825 1.2
      vertex 149.995 35.005 1.2
    endloop
  endfacet
  facet normal 0 0 -1
    outer loop
      vertex 106.7 45.665 1.2
      vertex 107.017 45.7501 1.2
      vertex 149.995 35.005 1.2
    endloop
  endfacet
  facet normal 0 0 -1
    outer loop
      vertex 100.005 35.005 1.2
      vertex 106.7 45.665 1.2
      vertex 149.995 35.005 1.2
    endloop
  endfacet
  facet normal 0 0 -1
    outer loop
      vertex 106.383 45.7501 1.2
      vertex 106.7 45.665 1.2
      vertex 100.005 35.005 1.2
    endloop
  endfacet
  facet normal 0 0 -1
    outer loop
      vertex 106.15 45.9825 1.2
      vertex 106.383 45.7501 1.2
      vertex 100.005 35.005 1.2
    endloop
  endfacet
  facet normal 0 0 -1
    outer loop
      vertex 106.065 46.3 1.2
      vertex 106.15 45.9825 1.2
      vertex 100.005 35.005 1.2
    endloop
  endfacet
  facet normal 0 0 -1
    outer loop
      vertex 100.005 84.995 1.2
      vertex 106.065 46.3 1.2
      vertex 100.005 35.005 1.2
    endloop
  endfacet
  facet normal 0 0 -1
    outer loop
      vertex 113.65 45.9825 1.2
      vertex 113.883 45.7501 1.2
      vertex 107.335 46.3 1.2
    endloop
  endfacet
  facet normal 0 0 -1
    outer loop
      vertex 121.15 45.9825 1.2
      vertex 121.383 45.7501 1.2
      vertex 114.835 46.3 1.2
    endloop
  endfacet
  facet normal 0 0 -1
    outer loop
      vertex 128.65 45.9825 1.2
      vertex 128.883 45.7501 1.2
      vertex 122.335 46.3 1.2
    endloop
  endfacet
  facet normal 0 0 -1
    outer loop
      vertex 136.15 45.9825 1.2
      vertex 136.383 45.7501 1.2
      vertex 129.835 46.3 1.2
    endloop
  endfacet
  facet normal 0 0 -1
    outer loop
      vertex 128.565 46.3 1.2
      vertex 128.565 57.55 1.2
      vertex 128.65 46.6175 1.2
    endloop
  endfacet
  facet normal 0 0 -1
    outer loop
      vertex 121.065 46.3 1.2
      vertex 121.065 57.55 1.2
      vertex 121.15 46.6175 1.2
    endloop
  endfacet
  facet normal 0 0 -1
    outer loop
      vertex 113.565 46.3 1.2
      vertex 113.565 57.55 1.2
      vertex 113.65 46.6175 1.2
    endloop
  endfacet
  facet normal 0 0 1
    outer loop
      vertex 107.335 57.55 1.5
      vertex 107.25 57.2325 1.5
      vertex 107.335 46.3 1.5
    endloop
  endfacet
  facet normal 0 0 1
    outer loop
      vertex 107.335 57.55 1.5
      vertex 107.335 46.3 1.5
      vertex 113.65 45.9825 1.5
    endloop
  endfacet
  facet normal 0 0 1
    outer loop
      vertex 107.335 57.55 1.5
      vertex 113.65 45.9825 1.5
      vertex 113.565 46.3 1.5
    endloop
  endfacet
  facet normal 0 0 1
    outer loop
      vertex 107.335 57.55 1.5
      vertex 113.565 46.3 1.5
      vertex 113.565 57.55 1.5
    endloop
  endfacet
  facet normal 0 0 1
    outer loop
      vertex 107.335 57.55 1.5
      vertex 113.565 57.55 1.5
      vertex 113.65 57.8675 1.5
    endloop
  endfacet
  facet normal 0 0 1
    outer loop
      vertex 107.335 57.55 1.5
      vertex 113.65 57.8675 1.5
      vertex 113.883 58.0999 1.5
    endloop
  endfacet
  facet normal 0 0 1
    outer loop
      vertex 107.335 57.55 1.5
      vertex 113.883 58.0999 1.5
      vertex 149.995 84.995 1.5
    endloop
  endfacet
  facet normal 0 0 1
    outer loop
      vertex 107.335 57.55 1.5
      vertex 149.995 84.995 1.5
      vertex 107.25 57.8675 1.5
    endloop
  endfacet
  facet normal 0 0 1
    outer loop
      vertex 107.25 57.2325 1.5
      vertex 107.017 57.0001 1.5
      vertex 107.017 46.8499 1.5
    endloop
  endfacet
  facet normal 0 0 1
    outer loop
      vertex 107.25 57.2325 1.5
      vertex 107.017 46.8499 1.5
      vertex 107.25 46.6175 1.5
    endloop
  endfacet
  facet normal 0 0 1
    outer loop
      vertex 107.25 57.2325 1.5
      vertex 107.25 46.6175 1.5
      vertex 107.335 46.3 1.5
    endloop
  endfacet
  facet normal 0 0 1
    outer loop
      vertex 106.7 56.915 1.5
      vertex 106.383 57.0001 1.5
      vertex 106.383 46.8499 1.5
    endloop
  endfacet
  facet normal 0 0 1
    outer loop
      vertex 106.7 56.915 1.5
      vertex 106.383 46.8499 1.5
      vertex 106.7 46.935 1.5
    endloop
  endfacet
  facet normal 0 0 1
    outer loop
      vertex 106.7 56.915 1.5
      vertex 106.7 46.935 1.5
      vertex 107.017 46.8499 1.5
    endloop
  endfacet
  facet normal 0 0 1
    outer loop
      vertex 106.7 56.915 1.5
      vertex 107.017 46.8499 1.5
      vertex 107.017 57.0001 1.5
    endloop
  endfacet
  facet normal 0 0 1
    outer loop
      vertex 100.005 84.995 1.5
      vertex 106.065 46.3 1.5
      vertex 106.065 57.55 1.5
    endloop
  endfacet
  facet normal 0 0 1
    outer loop
      vertex 106.065 46.3 1.5
      vertex 106.15 46.6175 1.5
      vertex 106.065 57.55 1.5
    endloop
  endfacet
  facet normal 0 0 1
    outer loop
      vertex 106.065 57.55 1.5
      vertex 106.15 46.6175 1.5
      vertex 106.15 57.2325 1.5
    endloop
  endfacet
  facet normal 0 0 1
    outer loop
      vertex 106.15 46.6175 1.5
      vertex 106.383 46.8499 1.5
      vertex 106.15 57.2325 1.5
    endloop
  endfacet
  facet normal 0 0 1
    outer loop
      vertex 106.15 57.2325 1.5
      vertex 106.383 46.8499 1.5
      vertex 106.383 57.0001 1.5
    endloop
  endfacet
  facet normal 0 0 1
    outer loop
      vertex 114.835 57.55 1.5
      vertex 114.75 57.2325 1.5
      vertex 114.835 46.3 1.5
    endloop
  endfacet
  facet normal 0 0 1
    outer loop
      vertex 114.835 57.55 1.5
      vertex 114.835 46.3 1.5
      vertex 121.15 45.9825 1.5
    endloop
  endfacet
  facet normal 0 0 1
    outer loop
      vertex 114.835 57.55 1.5
      vertex 121.15 45.9825 1.5
      vertex 121.065 46.3 1.5
    endloop
  endfacet
  facet normal 0 0 1
    outer loop
      vertex 114.835 57.55 1.5
      vertex 121.065 46.3 1.5
      vertex 121.065 57.55 1.5
    endloop
  endfacet
  facet normal 0 0 1
    outer loop
      vertex 114.835 57.55 1.5
      vertex 121.065 57.55 1.5
      vertex 121.15 57.8675 1.5
    endloop
  endfacet
  facet normal 0 0 1
    outer loop
      vertex 114.835 57.55 1.5
      vertex 121.15 57.8675 1.5
      vertex 121.383 58.0999 1.5
    endloop
  endfacet
  facet normal 0 0 1
    outer loop
      vertex 114.835 57.55 1.5
      vertex 121.383 58.0999 1.5
      vertex 149.995 84.995 1.5
    endloop
  endfacet
  facet normal 0 0 1
    outer loop
      vertex 114.835 57.55 1.5
      vertex 149.995 84.995 1.5
      vertex 114.75 57.8675 1.5
    endloop
  endfacet
  facet normal 0 0 1
    outer loop
      vertex 114.75 57.2325 1.5
      vertex 114.517 57.0001 1.5
      vertex 114.517 46.8499 1.5
    endloop
  endfacet
  facet normal 0 0 1
    outer loop
      vertex 114.75 57.2325 1.5
      vertex 114.517 46.8499 1.5
      vertex 114.75 46.6175 1.5
    endloop
  endfacet
  facet normal 0 0 1
    outer loop
      vertex 114.75 57.2325 1.5
      vertex 114.75 46.6175 1.5
      vertex 114.835 46.3 1.5
    endloop
  endfacet
  facet normal 0 0 1
    outer loop
      vertex 114.2 56.915 1.5
      vertex 113.883 57.0001 1.5
      vertex 113.883 46.8499 1.5
    endloop
  endfacet
  facet normal 0 0 1
    outer loop
      vertex 114.2 56.915 1.5
      vertex 113.883 46.8499 1.5
      vertex 114.2 46.935 1.5
    endloop
  endfacet
  facet normal 0 0 1
    outer loop
      vertex 114.2 56.915 1.5
      vertex 114.2 46.935 1.5
      vertex 114.517 46.8499 1.5
    endloop
  endfacet
  facet normal 0 0 1
    outer loop
      vertex 114.2 56.915 1.5
      vertex 114.517 46.8499 1.5
      vertex 114.517 57.0001 1.5
    endloop
  endfacet
  facet normal 0 0 1
    outer loop
      vertex 113.65 57.2325 1.5
      vertex 113.565 57.55 1.5
      vertex 113.65 46.6175 1.5
    endloop
  endfacet
  facet normal 0 0 1
    outer loop
      vertex 113.65 57.2325 1.5
      vertex 113.65 46.6175 1.5
      vertex 113.883 46.8499 1.5
    endloop
  endfacet
  facet normal 0 0 1
    outer loop
      vertex 113.65 57.2325 1.5
      vertex 113.883 46.8499 1.5
      vertex 113.883 57.0001 1.5
    endloop
  endfacet
  facet normal 0 0 1
    outer loop
      vertex 122.335 57.55 1.5
      vertex 122.25 57.2325 1.5
      vertex 122.335 46.3 1.5
    endloop
  endfacet
  facet normal 0 0 1
    outer loop
      vertex 122.335 57.55 1.5
      vertex 122.335 46.3 1.5
      vertex 128.65 45.9825 1.5
    endloop
  endfacet
  facet normal 0 0 1
    outer loop
      vertex 122.335 57.55 1.5
      vertex 128.65 45.9825 1.5
      vertex 128.565 46.3 1.5
    endloop
  endfacet
  facet normal 0 0 1
    outer loop
      vertex 122.335 57.55 1.5
      vertex 128.565 46.3 1.5
      vertex 128.565 57.55 1.5
    endloop
  endfacet
  facet normal 0 0 1
    outer loop
      vertex 122.335 57.55 1.5
      vertex 128.565 57.55 1.5
      vertex 128.65 57.8675 1.5
    endloop
  endfacet
  facet normal 0 0 1
    outer loop
      vertex 122.335 57.55 1.5
      vertex 128.65 57.8675 1.5
      vertex 149.995 84.995 1.5
    endloop
  endfacet
  facet normal 0 0 1
    outer loop
      vertex 122.335 57.55 1.5
      vertex 149.995 84.995 1.5
      vertex 122.25 57.8675 1.5
    endloop
  endfacet
  facet normal 0 0 1
    outer loop
      vertex 122.25 57.2325 1.5
      vertex 122.017 57.0001 1.5
      vertex 122.017 46.8499 1.5
    endloop
  endfacet
  facet normal 0 0 1
    outer loop
      vertex 122.25 57.2325 1.5
      vertex 122.017 46.8499 1.5
      vertex 122.25 46.6175 1.5
    endloop
  endfacet
  facet normal 0 0 1
    outer loop
      vertex 122.25 57.2325 1.5
      vertex 122.25 46.6175 1.5
      vertex 122.335 46.3 1.5
    endloop
  endfacet
  facet normal 0 0 1
    outer loop
      vertex 121.7 56.915 1.5
      vertex 121.383 57.0001 1.5
      vertex 121.383 46.8499 1.5
    endloop
  endfacet
  facet normal 0 0 1
    outer loop
      vertex 121.7 56.915 1.5
      vertex 121.383 46.8499 1.5
      vertex 121.7 46.935 1.5
    endloop
  endfacet
  facet normal 0 0 1
    outer loop
      vertex 121.7 56.915 1.5
      vertex 121.7 46.935 1.5
      vertex 122.017 46.8499 1.5
    endloop
  endfacet
  facet normal 0 0 1
    outer loop
      vertex 121.7 56.915 1.5
      vertex 122.017 46.8499 1.5
      vertex 122.017 57.0001 1.5
    endloop
  endfacet
  facet normal 0 0 1
    outer loop
      vertex 121.15 57.2325 1.5
      vertex 121.065 57.55 1.5
      vertex 121.15 46.6175 1.5
    endloop
  endfacet
  facet normal 0 0 1
    outer loop
      vertex 121.15 57.2325 1.5
      vertex 121.15 46.6175 1.5
      vertex 121.383 46.8499 1.5
    endloop
  endfacet
  facet normal 0 0 1
    outer loop
      vertex 121.15 57.2325 1.5
      vertex 121.383 46.8499 1.5
      vertex 121.383 57.0001 1.5
    endloop
  endfacet
  facet normal 0 0 1
    outer loop
      vertex 129.835 57.55 1.5
      vertex 129.75 57.2325 1.5
      vertex 129.835 46.3 1.5
    endloop
  endfacet
  facet normal 0 0 1
    outer loop
      vertex 129.835 57.55 1.5
      vertex 129.835 46.3 1.5
      vertex 136.15 45.9825 1.5
    endloop
  endfacet
  facet normal 0 0 1
    outer loop
      vertex 129.835 57.55 1.5
      vertex 136.15 45.9825 1.5
      vertex 136.065 46.3 1.5
    endloop
  endfacet
  facet normal 0 0 1
    outer loop
      vertex 129.835 57.55 1.5
      vertex 136.065 46.3 1.5
      vertex 136.065 57.55 1.5
    endloop
  endfacet
  facet normal 0 0 1
    outer loop
      vertex 129.835 57.55 1.5
      vertex 136.065 57.55 1.5
      vertex 136.15 57.8675 1.5
    endloop
  endfacet
  facet normal 0 0 1
    outer loop
      vertex 129.835 57.55 1.5
      vertex 136.15 57.8675 1.5
      vertex 149.995 84.995 1.5
    endloop
  endfacet
  facet normal 0 0 1
    outer loop
      vertex 129.835 57.55 1.5
      vertex 149.995 84.995 1.5
      vertex 129.75 57.8675 1.5
    endloop
  endfacet
  facet normal 0 0 1
    outer loop
      vertex 129.75 57.2325 1.5
      vertex 129.517 57.0001 1.5
      vertex 129.517 46.8499 1.5
    endloop
  endfacet
  facet normal 0 0 1
    outer loop
      vertex 129.75 57.2325 1.5
      vertex 129.517 46.8499 1.5
      vertex 129.75 46.6175 1.5
    endloop
  endfacet
  facet normal 0 0 1
    outer loop
      vertex 129.75 57.2325 1.5
      vertex 129.75 46.6175 1.5
      vertex 129.835 46.3 1.5
    endloop
  endfacet
  facet normal 0 0 1
    outer loop
      vertex 129.2 56.915 1.5
      vertex 128.883 57.0001 1.5
      vertex 128.883 46.8499 1.5
    endloop
  endfacet
  facet normal 0 0 1
    outer loop
      vertex 129.2 56.915 1.5
      vertex 128.883 46.8499 1.5
      vertex 129.2 46.935 1.5
    endloop
  endfacet
  facet normal 0 0 1
    outer loop
      vertex 129.2 56.915 1.5
      vertex 129.2 46.935 1.5
      vertex 129.517 46.8499 1.5
    endloop
  endfacet
  facet normal 0 0 1
    outer loop
      vertex 129.2 56.915 1.5
      vertex 129.517 46.8499 1.5
      vertex 129.517 57.0001 1.5
    endloop
  endfacet
  facet normal 0 0 1
    outer loop
      vertex 128.65 57.2325 1.5
      vertex 128.565 57.55 1.5
      vertex 128.65 46.6175 1.5
    endloop
  endfacet
  facet normal 0 0 1
    outer loop
      vertex 128.65 57.2325 1.5
      vertex 128.65 46.6175 1.5
      vertex 128.883 46.8499 1.5
    endloop
  endfacet
  facet normal 0 0 1
    outer loop
      vertex 128.65 57.2325 1.5
      vertex 128.883 46.8499 1.5
      vertex 128.883 57.0001 1.5
    endloop
  endfacet
  facet normal 0 0 1
    outer loop
      vertex 137.017 46.8499 1.5
      vertex 137.25 46.6175 1.5
      vertex 137.25 57.2325 1.5
    endloop
  endfacet
  facet normal 0 0 1
    outer loop
      vertex 137.25 46.6175 1.5
      vertex 137.335 46.3 1.5
      vertex 137.25 57.2325 1.5
    endloop
  endfacet
  facet normal 0 0 1
    outer loop
      vertex 137.25 57.2325 1.5
      vertex 137.335 46.3 1.5
      vertex 137.335 57.55 1.5
    endloop
  endfacet
  facet normal 0 0 1
    outer loop
      vertex 137.335 46.3 1.5
      vertex 149.995 35.005 1.5
      vertex 137.335 57.55 1.5
    endloop
  endfacet
  facet normal 0 0 1
    outer loop
      vertex 137.335 57.55 1.5
      vertex 149.995 35.005 1.5
      vertex 149.995 84.995 1.5
    endloop
  endfacet
  facet normal 0 0 1
    outer loop
      vertex 136.383 46.8499 1.5
      vertex 136.7 46.935 1.5
      vertex 136.7 56.915 1.5
    endloop
  endfacet
  facet normal 0 0 1
    outer loop
      vertex 149.995 84.995 1.5
      vertex 129.517 58.0999 1.5
      vertex 129.75 57.8675 1.5
    endloop
  endfacet
  facet normal 0 0 1
    outer loop
      vertex 149.995 84.995 1.5
      vertex 121.383 58.0999 1.5
      vertex 121.7 58.185 1.5
    endloop
  endfacet
  facet normal 0 0 1
    outer loop
      vertex 149.995 84.995 1.5
      vertex 121.7 58.185 1.5
      vertex 122.017 58.0999 1.5
    endloop
  endfacet
  facet normal 0 0 1
    outer loop
      vertex 149.995 84.995 1.5
      vertex 122.017 58.0999 1.5
      vertex 122.25 57.8675 1.5
    endloop
  endfacet
  facet normal 0 0 1
    outer loop
      vertex 149.995 84.995 1.5
      vertex 113.883 58.0999 1.5
      vertex 114.2 58.185 1.5
    endloop
  endfacet
  facet normal 0 0 1
    outer loop
      vertex 149.995 84.995 1.5
      vertex 114.2 58.185 1.5
      vertex 114.517 58.0999 1.5
    endloop
  endfacet
  facet normal 0 0 1
    outer loop
      vertex 149.995 84.995 1.5
      vertex 114.517 58.0999 1.5
      vertex 114.75 57.8675 1.5
    endloop
  endfacet
  facet normal 0 0 1
    outer loop
      vertex 149.995 84.995 1.5
      vertex 100.005 84.995 1.5
      vertex 106.383 58.0999 1.5
    endloop
  endfacet
  facet normal 0 0 1
    outer loop
      vertex 136.7 46.935 1.5
      vertex 137.017 46.8499 1.5
      vertex 136.7 56.915 1.5
    endloop
  endfacet
  facet normal 0 0 1
    outer loop
      vertex 136.7 56.915 1.5
      vertex 137.017 46.8499 1.5
      vertex 137.017 57.0001 1.5
    endloop
  endfacet
  facet normal 0 0 1
    outer loop
      vertex 137.017 46.8499 1.5
      vertex 137.25 57.2325 1.5
      vertex 137.017 57.0001 1.5
    endloop
  endfacet
  facet normal 0 0 1
    outer loop
      vertex 136.7 56.915 1.5
      vertex 136.383 57.0001 1.5
      vertex 136.383 46.8499 1.5
    endloop
  endfacet
  facet normal 0 0 1
    outer loop
      vertex 136.383 57.0001 1.5
      vertex 136.15 57.2325 1.5
      vertex 136.383 46.8499 1.5
    endloop
  endfacet
  facet normal 0 0 1
    outer loop
      vertex 136.383 46.8499 1.5
      vertex 136.15 57.2325 1.5
      vertex 136.15 46.6175 1.5
    endloop
  endfacet
  facet normal 0 0 1
    outer loop
      vertex 136.15 57.2325 1.5
      vertex 136.065 57.55 1.5
      vertex 136.15 46.6175 1.5
    endloop
  endfacet
  facet normal 0 0 1
    outer loop
      vertex 136.15 46.6175 1.5
      vertex 136.065 57.55 1.5
      vertex 136.065 46.3 1.5
    endloop
  endfacet
  facet normal 0 0 1
    outer loop
      vertex 149.995 84.995 1.5
      vertex 136.15 57.8675 1.5
      vertex 136.383 58.0999 1.5
    endloop
  endfacet
  facet normal 0 0 1
    outer loop
      vertex 149.995 84.995 1.5
      vertex 136.383 58.0999 1.5
      vertex 136.7 58.185 1.5
    endloop
  endfacet
  facet normal 0 0 1
    outer loop
      vertex 149.995 84.995 1.5
      vertex 136.7 58.185 1.5
      vertex 137.017 58.0999 1.5
    endloop
  endfacet
  facet normal 0 0 1
    outer loop
      vertex 149.995 84.995 1.5
      vertex 137.017 58.0999 1.5
      vertex 137.25 57.8675 1.5
    endloop
  endfacet
  facet normal 0 0 1
    outer loop
      vertex 149.995 84.995 1.5
      vertex 137.25 57.8675 1.5
      vertex 137.335 57.55 1.5
    endloop
  endfacet
  facet normal 0 0 1
    outer loop
      vertex 149.995 84.995 1.5
      vertex 128.65 57.8675 1.5
      vertex 128.883 58.0999 1.5
    endloop
  endfacet
  facet normal 0 0 1
    outer loop
      vertex 149.995 84.995 1.5
      vertex 128.883 58.0999 1.5
      vertex 129.2 58.185 1.5
    endloop
  endfacet
  facet normal 0 0 1
    outer loop
      vertex 149.995 84.995 1.5
      vertex 129.2 58.185 1.5
      vertex 129.517 58.0999 1.5
    endloop
  endfacet
  facet normal 0 0 1
    outer loop
      vertex 149.995 84.995 1.5
      vertex 106.383 58.0999 1.5
      vertex 106.7 58.185 1.5
    endloop
  endfacet
  facet normal 0 0 1
    outer loop
      vertex 149.995 84.995 1.5
      vertex 106.7 58.185 1.5
      vertex 107.017 58.0999 1.5
    endloop
  endfacet
  facet normal 0 0 1
    outer loop
      vertex 149.995 84.995 1.5
      vertex 107.017 58.0999 1.5
      vertex 107.25 57.8675 1.5
    endloop
  endfacet
  facet normal 0 0 1
    outer loop
      vertex 106.15 57.8675 1.5
      vertex 106.383 58.0999 1.5
      vertex 100.005 84.995 1.5
    endloop
  endfacet
  facet normal 0 0 1
    outer loop
      vertex 106.15 57.8675 1.5
      vertex 100.005 84.995 1.5
      vertex 106.065 57.55 1.5
    endloop
  endfacet
  facet normal 0 0 1
    outer loop
      vertex 149.995 35.005 1.5
      vertex 137.335 46.3 1.5
      vertex 137.25 45.9825 1.5
    endloop
  endfacet
  facet normal 0 0 1
    outer loop
      vertex 121.15 46.6175 1.5
      vertex 121.065 57.55 1.5
      vertex 121.065 46.3 1.5
    endloop
  endfacet
  facet normal 0 0 1
    outer loop
      vertex 113.65 46.6175 1.5
      vertex 113.565 57.55 1.5
      vertex 113.565 46.3 1.5
    endloop
  endfacet
  facet normal 0 0 1
    outer loop
      vertex 149.995 35.005 1.5
      vertex 137.25 45.9825 1.5
      vertex 137.017 45.7501 1.5
    endloop
  endfacet
  facet normal 0 0 1
    outer loop
      vertex 149.995 35.005 1.5
      vertex 137.017 45.7501 1.5
      vertex 136.7 45.665 1.5
    endloop
  endfacet
  facet normal 0 0 1
    outer loop
      vertex 149.995 35.005 1.5
      vertex 136.7 45.665 1.5
      vertex 136.383 45.7501 1.5
    endloop
  endfacet
  facet normal 0 0 1
    outer loop
      vertex 149.995 35.005 1.5
      vertex 136.383 45.7501 1.5
      vertex 129.835 46.3 1.5
    endloop
  endfacet
  facet normal 0 0 1
    outer loop
      vertex 149.995 35.005 1.5
      vertex 129.835 46.3 1.5
      vertex 129.75 45.9825 1.5
    endloop
  endfacet
  facet normal 0 0 1
    outer loop
      vertex 149.995 35.005 1.5
      vertex 129.75 45.9825 1.5
      vertex 129.517 45.7501 1.5
    endloop
  endfacet
  facet normal 0 0 1
    outer loop
      vertex 149.995 35.005 1.5
      vertex 129.517 45.7501 1.5
      vertex 129.2 45.665 1.5
    endloop
  endfacet
  facet normal 0 0 1
    outer loop
      vertex 149.995 35.005 1.5
      vertex 129.2 45.665 1.5
      vertex 128.883 45.7501 1.5
    endloop
  endfacet
  facet normal 0 0 1
    outer loop
      vertex 149.995 35.005 1.5
      vertex 128.883 45.7501 1.5
      vertex 122.335 46.3 1.5
    endloop
  endfacet
  facet normal 0 0 1
    outer loop
      vertex 149.995 35.005 1.5
      vertex 122.335 46.3 1.5
      vertex 122.25 45.9825 1.5
    endloop
  endfacet
  facet normal 0 0 1
    outer loop
      vertex 149.995 35.005 1.5
      vertex 122.25 45.9825 1.5
      vertex 122.017 45.7501 1.5
    endloop
  endfacet
  facet normal 0 0 1
    outer loop
      vertex 149.995 35.005 1.5
      vertex 122.017 45.7501 1.5
      vertex 121.7 45.665 1.5
    endloop
  endfacet
  facet normal 0 0 1
    outer loop
      vertex 149.995 35.005 1.5
      vertex 121.7 45.665 1.5
      vertex 121.383 45.7501 1.5
    endloop
  endfacet
  facet normal 0 0 1
    outer loop
      vertex 149.995 35.005 1.5
      vertex 121.383 45.7501 1.5
      vertex 114.835 46.3 1.5
    endloop
  endfacet
  facet normal 0 0 1
    outer loop
      vertex 149.995 35.005 1.5
      vertex 114.835 46.3 1.5
      vertex 114.75 45.9825 1.5
    endloop
  endfacet
  facet normal 0 0 1
    outer loop
      vertex 149.995 35.005 1.5
      vertex 114.75 45.9825 1.5
      vertex 114.517 45.7501 1.5
    endloop
  endfacet
  facet normal 0 0 1
    outer loop
      vertex 149.995 35.005 1.5
      vertex 114.517 45.7501 1.5
      vertex 114.2 45.665 1.5
    endloop
  endfacet
  facet normal 0 0 1
    outer loop
      vertex 149.995 35.005 1.5
      vertex 114.2 45.665 1.5
      vertex 113.883 45.7501 1.5
    endloop
  endfacet
  facet normal 0 0 1
    outer loop
      vertex 149.995 35.005 1.5
      vertex 113.883 45.7501 1.5
      vertex 107.335 46.3 1.5
    endloop
  endfacet
  facet normal 0 0 1
    outer loop
      vertex 149.995 35.005 1.5
      vertex 107.335 46.3 1.5
      vertex 107.25 45.9825 1.5
    endloop
  endfacet
  facet normal 0 0 1
    outer loop
      vertex 149.995 35.005 1.5
      vertex 107.25 45.9825 1.5
      vertex 107.017 45.7501 1.5
    endloop
  endfacet
  facet normal 0 0 1
    outer loop
      vertex 149.995 35.005 1.5
      vertex 107.017 45.7501 1.5
      vertex 106.7 45.665 1.5
    endloop
  endfacet
  facet normal 0 0 1
    outer loop
      vertex 149.995 35.005 1.5
      vertex 106.7 45.665 1.5
      vertex 100.005 35.005 1.5
    endloop
  endfacet
  facet normal 0 0 1
    outer loop
      vertex 100.005 35.005 1.5
      vertex 106.7 45.665 1.5
      vertex 106.383 45.7501 1.5
    endloop
  endfacet
  facet normal 0 0 1
    outer loop
      vertex 100.005 35.005 1.5
      vertex 106.383 45.7501 1.5
      vertex 106.15 45.9825 1.5
    endloop
  endfacet
  facet normal 0 0 1
    outer loop
      vertex 100.005 35.005 1.5
      vertex 106.15 45.9825 1.5
      vertex 106.065 46.3 1.5
    endloop
  endfacet
  facet normal 0 0 1
    outer loop
      vertex 100.005 35.005 1.5
      vertex 106.065 46.3 1.5
      vertex 100.005 84.995 1.5
    endloop
  endfacet
  facet normal 0 0 1
    outer loop
      vertex 107.335 46.3 1.5
      vertex 113.883 45.7501 1.5
      vertex 113.65 45.9825 1.5
    endloop
  endfacet
  facet normal 0 0 1
    outer loop
      vertex 114.835 46.3 1.5
      vertex 121.383 45.7501 1.5
      vertex 121.15 45.9825 1.5
    endloop
  endfacet
  facet normal 0 0 1
    outer loop
      vertex 122.335 46.3 1.5
      vertex 128.883 45.7501 1.5
      vertex 128.65 45.9825 1.5
    endloop
  endfacet
  facet normal 0 0 1
    outer loop
      vertex 129.835 46.3 1.5
      vertex 136.383 45.7501 1.5
      vertex 136.15 45.9825 1.5
    endloop
  endfacet
  facet normal 0 0 1
    outer loop
      vertex 128.65 46.6175 1.5
      vertex 128.565 57.55 1.5
      vertex 128.565 46.3 1.5
    endloop
  endfacet
endsolid Die_LTCC_PCB-V5_GTL.stl
