G04 Layer_Physical_Order=1*
G04 Layer_Color=255*
%FSLAX25Y25*%
%MOIN*%
G70*
G01*
G75*
%ADD10R,0.10236X0.05906*%
%ADD11R,0.10236X0.04331*%
%ADD12C,0.02000*%
%ADD13C,0.01000*%
%ADD14R,0.20000X0.20000*%
D10*
X256000Y295094D02*
D03*
Y306906D02*
D03*
X226213Y295094D02*
D03*
Y306906D02*
D03*
X195000Y294094D02*
D03*
Y305906D02*
D03*
X165000Y294094D02*
D03*
Y305906D02*
D03*
X134000Y294094D02*
D03*
Y305906D02*
D03*
D11*
X256000Y330685D02*
D03*
Y341315D02*
D03*
X226000Y330685D02*
D03*
Y341315D02*
D03*
X195000Y330685D02*
D03*
Y341315D02*
D03*
X165000Y330685D02*
D03*
Y341315D02*
D03*
X134000Y330685D02*
D03*
Y341315D02*
D03*
D12*
X284500Y346000D02*
Y352000D01*
Y339500D02*
Y346000D01*
X278000D02*
X291000D01*
X277000Y221000D02*
X291000D01*
X271000Y371000D02*
X285000D01*
X241000D02*
X271000D01*
Y201000D02*
X280000D01*
X241000D02*
X271000D01*
X210000D02*
X241000D01*
X180000D02*
X210000D01*
X149000D02*
X180000D01*
X256000Y216000D02*
Y226000D01*
Y216000D02*
X271000Y201000D01*
X226000Y216000D02*
Y226000D01*
Y216000D02*
X241000Y201000D01*
X195000Y216000D02*
Y226000D01*
Y216000D02*
X210000Y201000D01*
X165000Y216000D02*
Y226000D01*
Y216000D02*
X180000Y201000D01*
X134000Y216000D02*
X149000Y201000D01*
X134000Y216000D02*
Y226000D01*
X256000Y271000D02*
Y295094D01*
X226213Y271213D02*
Y295094D01*
X195000Y271000D02*
Y294094D01*
X165000Y271000D02*
Y294094D01*
X134000Y271000D02*
Y294094D01*
X256000Y356000D02*
X271000Y371000D01*
X210000D02*
X241000D01*
X226000Y356000D02*
X241000Y371000D01*
X180000D02*
X210000D01*
X195000Y356000D02*
X210000Y371000D01*
X256000Y341315D02*
Y356000D01*
X226000Y341315D02*
Y356000D01*
X195000Y341315D02*
Y356000D01*
X134000D02*
X149000Y371000D01*
X134000Y341315D02*
Y356000D01*
X165000D02*
X180000Y371000D01*
X149000D02*
X180000D01*
X165000Y341315D02*
Y356000D01*
X256000Y330685D02*
X256000Y330685D01*
Y306906D02*
Y330685D01*
X226000Y330685D02*
X226213Y330472D01*
Y306906D02*
Y330472D01*
X195000Y330685D02*
X195000Y330685D01*
Y305906D02*
Y330685D01*
X165000Y330685D02*
X165000Y330685D01*
Y305906D02*
Y330685D01*
X134000Y305906D02*
Y330685D01*
D13*
X134000Y330685D02*
X134000Y330685D01*
D14*
X285000Y201000D02*
D03*
Y371000D02*
D03*
M02*
